<svg width="234" height="156" viewBox="0 0 234 156" fill="none" xmlns="http://www.w3.org/2000/svg">
<g opacity="0.16">
<rect y="156" width="134" height="22" rx="11" transform="rotate(-90 0 156)" fill="#A2A0B3"/>
</g>
<path d="M16 146.944H15.112V144.604H8.368V144.688L10.336 146.8L9.7 147.388L7.624 145.168V143.596H15.112V141.436H16V146.944ZM16 134.009V139.505H14.968L12.448 136.769C12.088 136.377 11.708 136.049 11.308 135.785C10.9 135.521 10.492 135.389 10.084 135.389H9.94C9.476 135.389 9.1 135.517 8.812 135.773C8.524 136.029 8.38 136.417 8.38 136.937C8.38 137.193 8.416 137.417 8.488 137.609C8.56 137.801 8.66 137.969 8.788 138.113C8.916 138.249 9.068 138.365 9.244 138.461C9.412 138.549 9.596 138.621 9.796 138.677L9.448 139.577C9.2 139.497 8.96 139.389 8.728 139.253C8.488 139.109 8.276 138.933 8.092 138.725C7.908 138.509 7.76 138.253 7.648 137.957C7.536 137.653 7.48 137.297 7.48 136.889C7.48 136.481 7.54 136.117 7.66 135.797C7.78 135.477 7.948 135.209 8.164 134.993C8.38 134.777 8.636 134.613 8.932 134.501C9.228 134.381 9.556 134.321 9.916 134.321C10.244 134.321 10.548 134.369 10.828 134.465C11.108 134.553 11.376 134.677 11.632 134.837C11.88 134.997 12.124 135.193 12.364 135.425C12.604 135.649 12.844 135.893 13.084 136.157L15.112 138.413V134.009H16Z" fill="#A2A0B3"/>
<rect x="26.4314" y="156" width="67" height="22" rx="11" transform="rotate(-90 26.4314 156)" fill="#3D8DFF"/>
<path d="M42.4314 141.604V147.1H41.3994L38.8794 144.364C38.5194 143.972 38.1394 143.644 37.7394 143.38C37.3314 143.116 36.9234 142.984 36.5154 142.984H36.3714C35.9074 142.984 35.5314 143.112 35.2434 143.368C34.9554 143.624 34.8114 144.012 34.8114 144.532C34.8114 144.788 34.8474 145.012 34.9194 145.204C34.9914 145.396 35.0914 145.564 35.2194 145.708C35.3474 145.844 35.4994 145.96 35.6754 146.056C35.8434 146.144 36.0274 146.216 36.2274 146.272L35.8794 147.172C35.6314 147.092 35.3914 146.984 35.1594 146.848C34.9194 146.704 34.7074 146.528 34.5234 146.32C34.3394 146.104 34.1914 145.848 34.0794 145.552C33.9674 145.248 33.9114 144.892 33.9114 144.484C33.9114 144.076 33.9714 143.712 34.0914 143.392C34.2114 143.072 34.3794 142.804 34.5954 142.588C34.8114 142.372 35.0674 142.208 35.3634 142.096C35.6594 141.976 35.9874 141.916 36.3474 141.916C36.6754 141.916 36.9794 141.964 37.2594 142.06C37.5394 142.148 37.8074 142.272 38.0634 142.432C38.3114 142.592 38.5554 142.788 38.7954 143.02C39.0354 143.244 39.2754 143.488 39.5154 143.752L41.5434 146.008V141.604H42.4314Z" fill="white"/>
<g opacity="0.16">
<rect x="52.8628" y="156" width="123" height="22" rx="11" transform="rotate(-90 52.8628 156)" fill="#A2A0B3"/>
</g>
<path d="M68.8628 143.5H67.2188V147.544H66.3308L60.4868 144.04V142.54H66.3788V141.328H67.2188V142.54H68.8628V143.5ZM66.3788 146.596V143.5H61.2668V143.56L66.3788 146.596ZM68.8628 134.009V139.505H67.8308L65.3108 136.769C64.9508 136.377 64.5708 136.049 64.1708 135.785C63.7628 135.521 63.3548 135.389 62.9468 135.389H62.8028C62.3388 135.389 61.9628 135.517 61.6748 135.773C61.3868 136.029 61.2428 136.417 61.2428 136.937C61.2428 137.193 61.2788 137.417 61.3508 137.609C61.4228 137.801 61.5228 137.969 61.6508 138.113C61.7788 138.249 61.9308 138.365 62.1068 138.461C62.2748 138.549 62.4588 138.621 62.6588 138.677L62.3108 139.577C62.0628 139.497 61.8228 139.389 61.5908 139.253C61.3508 139.109 61.1388 138.933 60.9548 138.725C60.7708 138.509 60.6228 138.253 60.5108 137.957C60.3988 137.653 60.3428 137.297 60.3428 136.889C60.3428 136.481 60.4028 136.117 60.5228 135.797C60.6428 135.477 60.8108 135.209 61.0268 134.993C61.2428 134.777 61.4988 134.613 61.7948 134.501C62.0908 134.381 62.4188 134.321 62.7788 134.321C63.1068 134.321 63.4108 134.369 63.6908 134.465C63.9708 134.553 64.2388 134.677 64.4948 134.837C64.7428 134.997 64.9868 135.193 65.2268 135.425C65.4668 135.649 65.7068 135.893 65.9468 136.157L67.9748 138.413V134.009H68.8628Z" fill="#A2A0B3"/>
<g opacity="0.16">
<rect x="79.2942" y="156" width="90" height="22" rx="11" transform="rotate(-90 79.2942 156)" fill="#A2A0B3"/>
</g>
<path d="M95.2942 146.944H94.4062V144.604H87.6622V144.688L89.6302 146.8L88.9942 147.388L86.9182 145.168V143.596H94.4062V141.436H95.2942V146.944ZM90.4702 137.273C90.4702 136.705 90.3422 136.281 90.0862 136.001C89.8222 135.713 89.4862 135.569 89.0782 135.569H88.9942C88.5542 135.569 88.2262 135.709 88.0102 135.989C87.7862 136.261 87.6742 136.621 87.6742 137.069C87.6742 137.501 87.7702 137.853 87.9622 138.125C88.1462 138.397 88.3982 138.621 88.7182 138.797L88.1422 139.541C87.9742 139.437 87.8102 139.313 87.6502 139.169C87.4822 139.017 87.3342 138.841 87.2062 138.641C87.0782 138.441 86.9742 138.209 86.8942 137.945C86.8142 137.681 86.7742 137.381 86.7742 137.045C86.7742 136.693 86.8222 136.361 86.9182 136.049C87.0062 135.737 87.1422 135.469 87.3262 135.245C87.5022 135.013 87.7222 134.833 87.9862 134.705C88.2502 134.569 88.5502 134.501 88.8862 134.501C89.1582 134.501 89.4022 134.545 89.6182 134.633C89.8342 134.713 90.0222 134.825 90.1822 134.969C90.3422 135.113 90.4782 135.285 90.5902 135.485C90.7022 135.677 90.7862 135.885 90.8422 136.109H90.8902C90.9382 135.885 91.0182 135.669 91.1302 135.461C91.2342 135.245 91.3742 135.057 91.5502 134.897C91.7182 134.729 91.9262 134.597 92.1742 134.501C92.4142 134.397 92.6902 134.345 93.0022 134.345C93.3622 134.345 93.6942 134.413 93.9982 134.549C94.2942 134.685 94.5502 134.877 94.7662 135.125C94.9742 135.373 95.1382 135.673 95.2582 136.025C95.3782 136.377 95.4382 136.765 95.4382 137.189C95.4382 137.549 95.3982 137.869 95.3182 138.149C95.2382 138.429 95.1302 138.677 94.9942 138.893C94.8582 139.109 94.7062 139.301 94.5382 139.469C94.3702 139.629 94.1942 139.773 94.0102 139.901L93.4342 139.145C93.6022 139.041 93.7542 138.929 93.8902 138.809C94.0262 138.681 94.1422 138.541 94.2382 138.389C94.3342 138.237 94.4102 138.065 94.4662 137.873C94.5142 137.681 94.5382 137.457 94.5382 137.201C94.5382 136.609 94.4062 136.161 94.1422 135.857C93.8702 135.553 93.4862 135.401 92.9902 135.401H92.8942C92.3982 135.401 92.0182 135.553 91.7542 135.857C91.4822 136.161 91.3462 136.609 91.3462 137.201V138.185H90.4702V137.273Z" fill="#A2A0B3"/>
<g opacity="0.16">
<rect x="105.726" y="156" width="109" height="22" rx="11" transform="rotate(-90 105.726 156)" fill="#A2A0B3"/>
</g>
<path d="M116.902 144.868C116.902 144.3 116.774 143.876 116.518 143.596C116.254 143.308 115.918 143.164 115.51 143.164H115.426C114.986 143.164 114.658 143.304 114.442 143.584C114.218 143.856 114.106 144.216 114.106 144.664C114.106 145.096 114.202 145.448 114.394 145.72C114.578 145.992 114.83 146.216 115.15 146.392L114.574 147.136C114.406 147.032 114.242 146.908 114.082 146.764C113.914 146.612 113.766 146.436 113.638 146.236C113.51 146.036 113.406 145.804 113.326 145.54C113.246 145.276 113.206 144.976 113.206 144.64C113.206 144.288 113.254 143.956 113.35 143.644C113.438 143.332 113.574 143.064 113.758 142.84C113.934 142.608 114.154 142.428 114.418 142.3C114.682 142.164 114.982 142.096 115.318 142.096C115.59 142.096 115.834 142.14 116.05 142.228C116.266 142.308 116.454 142.42 116.614 142.564C116.774 142.708 116.91 142.88 117.022 143.08C117.134 143.272 117.218 143.48 117.274 143.704H117.322C117.37 143.48 117.45 143.264 117.562 143.056C117.666 142.84 117.806 142.652 117.982 142.492C118.15 142.324 118.358 142.192 118.606 142.096C118.846 141.992 119.122 141.94 119.434 141.94C119.794 141.94 120.126 142.008 120.43 142.144C120.726 142.28 120.982 142.472 121.198 142.72C121.406 142.968 121.57 143.268 121.69 143.62C121.81 143.972 121.87 144.36 121.87 144.784C121.87 145.144 121.83 145.464 121.75 145.744C121.67 146.024 121.562 146.272 121.426 146.488C121.29 146.704 121.138 146.896 120.97 147.064C120.802 147.224 120.626 147.368 120.442 147.496L119.866 146.74C120.034 146.636 120.186 146.524 120.322 146.404C120.458 146.276 120.574 146.136 120.67 145.984C120.766 145.832 120.842 145.66 120.898 145.468C120.946 145.276 120.97 145.052 120.97 144.796C120.97 144.204 120.838 143.756 120.574 143.452C120.302 143.148 119.918 142.996 119.422 142.996H119.326C118.83 142.996 118.45 143.148 118.186 143.452C117.914 143.756 117.778 144.204 117.778 144.796V145.78H116.902V144.868ZM121.726 134.009V139.505H120.694L118.174 136.769C117.814 136.377 117.434 136.049 117.034 135.785C116.626 135.521 116.218 135.389 115.81 135.389H115.666C115.202 135.389 114.826 135.517 114.538 135.773C114.25 136.029 114.106 136.417 114.106 136.937C114.106 137.193 114.142 137.417 114.214 137.609C114.286 137.801 114.386 137.969 114.514 138.113C114.642 138.249 114.794 138.365 114.97 138.461C115.138 138.549 115.322 138.621 115.522 138.677L115.174 139.577C114.926 139.497 114.686 139.389 114.454 139.253C114.214 139.109 114.002 138.933 113.818 138.725C113.634 138.509 113.486 138.253 113.374 137.957C113.262 137.653 113.206 137.297 113.206 136.889C113.206 136.481 113.266 136.117 113.386 135.797C113.506 135.477 113.674 135.209 113.89 134.993C114.106 134.777 114.362 134.613 114.658 134.501C114.954 134.381 115.282 134.321 115.642 134.321C115.97 134.321 116.274 134.369 116.554 134.465C116.834 134.553 117.102 134.677 117.358 134.837C117.606 134.997 117.85 135.193 118.09 135.425C118.33 135.649 118.57 135.893 118.81 136.157L120.838 138.413V134.009H121.726Z" fill="#A2A0B3"/>
<g opacity="0.16">
<rect x="132.157" y="156" width="156" height="22" rx="11" transform="rotate(-90 132.157 156)" fill="#A2A0B3"/>
</g>
<path d="M148.157 143.5H146.513V147.544H145.625L139.781 144.04V142.54H145.673V141.328H146.513V142.54H148.157V143.5ZM145.673 146.596V143.5H140.561V143.56L145.673 146.596ZM140.669 134.429V138.101L143.861 138.341V138.257C143.581 138.057 143.357 137.833 143.189 137.585C143.021 137.329 142.937 136.981 142.937 136.541C142.937 136.181 142.997 135.849 143.117 135.545C143.237 135.241 143.409 134.977 143.633 134.753C143.849 134.529 144.117 134.357 144.437 134.237C144.757 134.109 145.121 134.045 145.529 134.045C145.937 134.045 146.313 134.109 146.657 134.237C146.993 134.365 147.285 134.553 147.533 134.801C147.773 135.041 147.961 135.337 148.097 135.689C148.233 136.033 148.301 136.425 148.301 136.865C148.301 137.217 148.261 137.529 148.181 137.801C148.101 138.065 147.993 138.301 147.857 138.509C147.721 138.717 147.569 138.901 147.401 139.061C147.233 139.213 147.057 139.353 146.873 139.481L146.297 138.725C146.465 138.621 146.617 138.513 146.753 138.401C146.889 138.281 147.005 138.153 147.101 138.017C147.197 137.873 147.273 137.709 147.329 137.525C147.377 137.341 147.401 137.121 147.401 136.865C147.401 136.289 147.249 135.853 146.945 135.557C146.641 135.261 146.213 135.113 145.661 135.113H145.541C144.989 135.113 144.561 135.261 144.257 135.557C143.953 135.853 143.801 136.289 143.801 136.865C143.801 137.249 143.873 137.553 144.017 137.777C144.153 137.993 144.317 138.189 144.509 138.365L144.389 139.217L139.781 138.917V134.429H140.669Z" fill="#A2A0B3"/>
<g opacity="0.16">
<rect x="158.588" y="156" width="134" height="22" rx="11" transform="rotate(-90 158.588 156)" fill="#A2A0B3"/>
</g>
<path d="M174.588 141.604V147.1H173.556L171.036 144.364C170.676 143.972 170.296 143.644 169.896 143.38C169.488 143.116 169.08 142.984 168.672 142.984H168.528C168.064 142.984 167.688 143.112 167.4 143.368C167.112 143.624 166.968 144.012 166.968 144.532C166.968 144.788 167.004 145.012 167.076 145.204C167.148 145.396 167.248 145.564 167.376 145.708C167.504 145.844 167.656 145.96 167.832 146.056C168 146.144 168.184 146.216 168.384 146.272L168.036 147.172C167.788 147.092 167.548 146.984 167.316 146.848C167.076 146.704 166.864 146.528 166.68 146.32C166.496 146.104 166.348 145.848 166.236 145.552C166.124 145.248 166.068 144.892 166.068 144.484C166.068 144.076 166.128 143.712 166.248 143.392C166.368 143.072 166.536 142.804 166.752 142.588C166.968 142.372 167.224 142.208 167.52 142.096C167.816 141.976 168.144 141.916 168.504 141.916C168.832 141.916 169.136 141.964 169.416 142.06C169.696 142.148 169.964 142.272 170.22 142.432C170.468 142.592 170.712 142.788 170.952 143.02C171.192 143.244 171.432 143.488 171.672 143.752L173.7 146.008V141.604H174.588ZM169.764 137.273C169.764 136.705 169.636 136.281 169.38 136.001C169.116 135.713 168.78 135.569 168.372 135.569H168.288C167.848 135.569 167.52 135.709 167.304 135.989C167.08 136.261 166.968 136.621 166.968 137.069C166.968 137.501 167.064 137.853 167.256 138.125C167.44 138.397 167.692 138.621 168.012 138.797L167.436 139.541C167.268 139.437 167.104 139.313 166.944 139.169C166.776 139.017 166.628 138.841 166.5 138.641C166.372 138.441 166.268 138.209 166.188 137.945C166.108 137.681 166.068 137.381 166.068 137.045C166.068 136.693 166.116 136.361 166.212 136.049C166.3 135.737 166.436 135.469 166.62 135.245C166.796 135.013 167.016 134.833 167.28 134.705C167.544 134.569 167.844 134.501 168.18 134.501C168.452 134.501 168.696 134.545 168.912 134.633C169.128 134.713 169.316 134.825 169.476 134.969C169.636 135.113 169.772 135.285 169.884 135.485C169.996 135.677 170.08 135.885 170.136 136.109H170.184C170.232 135.885 170.312 135.669 170.424 135.461C170.528 135.245 170.668 135.057 170.844 134.897C171.012 134.729 171.22 134.597 171.468 134.501C171.708 134.397 171.984 134.345 172.296 134.345C172.656 134.345 172.988 134.413 173.292 134.549C173.588 134.685 173.844 134.877 174.06 135.125C174.268 135.373 174.432 135.673 174.552 136.025C174.672 136.377 174.732 136.765 174.732 137.189C174.732 137.549 174.692 137.869 174.612 138.149C174.532 138.429 174.424 138.677 174.288 138.893C174.152 139.109 174 139.301 173.832 139.469C173.664 139.629 173.488 139.773 173.304 139.901L172.728 139.145C172.896 139.041 173.048 138.929 173.184 138.809C173.32 138.681 173.436 138.541 173.532 138.389C173.628 138.237 173.704 138.065 173.76 137.873C173.808 137.681 173.832 137.457 173.832 137.201C173.832 136.609 173.7 136.161 173.436 135.857C173.164 135.553 172.78 135.401 172.284 135.401H172.188C171.692 135.401 171.312 135.553 171.048 135.857C170.776 136.161 170.64 136.609 170.64 137.201V138.185H169.764V137.273Z" fill="#A2A0B3"/>
<g opacity="0.16">
<rect x="185.02" y="156" width="77" height="22" rx="11" transform="rotate(-90 185.02 156)" fill="#A2A0B3"/>
</g>
<path d="M201.164 144.4C201.164 144.88 201.104 145.3 200.984 145.66C200.856 146.02 200.684 146.324 200.468 146.572C200.252 146.812 199.996 146.996 199.7 147.124C199.404 147.244 199.084 147.304 198.74 147.304C198.164 147.304 197.708 147.148 197.372 146.836C197.036 146.524 196.8 146.116 196.664 145.612H196.568C196.416 146.052 196.172 146.404 195.836 146.668C195.492 146.924 195.08 147.052 194.6 147.052C193.96 147.052 193.452 146.82 193.076 146.356C192.692 145.892 192.5 145.24 192.5 144.4C192.5 143.56 192.692 142.908 193.076 142.444C193.452 141.98 193.96 141.748 194.6 141.748C195.08 141.748 195.492 141.88 195.836 142.144C196.172 142.4 196.416 142.748 196.568 143.188H196.664C196.8 142.684 197.036 142.276 197.372 141.964C197.708 141.652 198.164 141.496 198.74 141.496C199.084 141.496 199.404 141.56 199.7 141.688C199.996 141.808 200.252 141.992 200.468 142.24C200.684 142.48 200.856 142.78 200.984 143.14C201.104 143.5 201.164 143.92 201.164 144.4ZM200.288 144.4C200.288 143.816 200.16 143.364 199.904 143.044C199.64 142.724 199.268 142.564 198.788 142.564H198.536C198.056 142.564 197.688 142.724 197.432 143.044C197.168 143.364 197.036 143.816 197.036 144.4C197.036 144.984 197.168 145.436 197.432 145.756C197.688 146.076 198.056 146.236 198.536 146.236H198.788C199.268 146.236 199.64 146.076 199.904 145.756C200.16 145.436 200.288 144.984 200.288 144.4ZM196.196 144.4C196.196 143.872 196.084 143.472 195.86 143.2C195.636 142.928 195.308 142.792 194.876 142.792H194.696C194.264 142.792 193.936 142.928 193.712 143.2C193.488 143.472 193.376 143.872 193.376 144.4C193.376 144.928 193.488 145.328 193.712 145.6C193.936 145.872 194.264 146.008 194.696 146.008H194.876C195.308 146.008 195.636 145.872 195.86 145.6C196.084 145.328 196.196 144.928 196.196 144.4Z" fill="#A2A0B3"/>
<g opacity="0.16">
<rect x="211" y="156" width="97" height="22" rx="11" transform="rotate(-90 211 156)" fill="#A2A0B3"/>
</g>
<path d="M227.451 146.944H226.563V144.604H219.819V144.688L221.787 146.8L221.151 147.388L219.075 145.168V143.596H226.563V141.436H227.451V146.944ZM222.627 137.273C222.627 136.705 222.499 136.281 222.243 136.001C221.979 135.713 221.643 135.569 221.235 135.569H221.151C220.711 135.569 220.383 135.709 220.167 135.989C219.943 136.261 219.831 136.621 219.831 137.069C219.831 137.501 219.927 137.853 220.119 138.125C220.303 138.397 220.555 138.621 220.875 138.797L220.299 139.541C220.131 139.437 219.967 139.313 219.807 139.169C219.639 139.017 219.491 138.841 219.363 138.641C219.235 138.441 219.131 138.209 219.051 137.945C218.971 137.681 218.931 137.381 218.931 137.045C218.931 136.693 218.979 136.361 219.075 136.049C219.163 135.737 219.299 135.469 219.483 135.245C219.659 135.013 219.879 134.833 220.143 134.705C220.407 134.569 220.707 134.501 221.043 134.501C221.315 134.501 221.559 134.545 221.775 134.633C221.991 134.713 222.179 134.825 222.339 134.969C222.499 135.113 222.635 135.285 222.747 135.485C222.859 135.677 222.943 135.885 222.999 136.109H223.047C223.095 135.885 223.175 135.669 223.287 135.461C223.391 135.245 223.531 135.057 223.707 134.897C223.875 134.729 224.083 134.597 224.331 134.501C224.571 134.397 224.847 134.345 225.159 134.345C225.519 134.345 225.851 134.413 226.155 134.549C226.451 134.685 226.707 134.877 226.923 135.125C227.131 135.373 227.295 135.673 227.415 136.025C227.535 136.377 227.595 136.765 227.595 137.189C227.595 137.549 227.555 137.869 227.475 138.149C227.395 138.429 227.287 138.677 227.151 138.893C227.015 139.109 226.863 139.301 226.695 139.469C226.527 139.629 226.351 139.773 226.167 139.901L225.591 139.145C225.759 139.041 225.911 138.929 226.047 138.809C226.183 138.681 226.299 138.541 226.395 138.389C226.491 138.237 226.567 138.065 226.623 137.873C226.671 137.681 226.695 137.457 226.695 137.201C226.695 136.609 226.563 136.161 226.299 135.857C226.027 135.553 225.643 135.401 225.147 135.401H225.051C224.555 135.401 224.175 135.553 223.911 135.857C223.639 136.161 223.503 136.609 223.503 137.201V138.185H222.627V137.273Z" fill="#A2A0B3"/>
</svg>
