<svg width="260" height="156" viewBox="0 0 260 156" fill="none" xmlns="http://www.w3.org/2000/svg">
<rect x="0.5" width="259" height="26" fill="#3D8DFF"/>
<path d="M139.703 18.144C139.159 18.144 138.667 18.052 138.227 17.868C137.795 17.676 137.423 17.4 137.111 17.04C136.807 16.672 136.571 16.22 136.403 15.684C136.235 15.14 136.151 14.516 136.151 13.812C136.151 13.108 136.235 12.488 136.403 11.952C136.571 11.416 136.807 10.964 137.111 10.596C137.423 10.228 137.795 9.952 138.227 9.768C138.667 9.576 139.159 9.48 139.703 9.48C140.239 9.48 140.727 9.576 141.167 9.768C141.607 9.952 141.979 10.228 142.283 10.596C142.595 10.964 142.835 11.416 143.003 11.952C143.171 12.488 143.255 13.108 143.255 13.812C143.255 14.516 143.171 15.14 143.003 15.684C142.835 16.22 142.595 16.672 142.283 17.04C141.979 17.4 141.607 17.676 141.167 17.868C140.727 18.052 140.239 18.144 139.703 18.144ZM139.703 17.244C140.063 17.244 140.395 17.18 140.699 17.052C141.003 16.924 141.263 16.74 141.479 16.5C141.703 16.26 141.875 15.972 141.995 15.636C142.115 15.3 142.175 14.924 142.175 14.508V13.116C142.175 12.7 142.115 12.324 141.995 11.988C141.875 11.652 141.703 11.364 141.479 11.124C141.263 10.884 141.003 10.7 140.699 10.572C140.395 10.444 140.063 10.38 139.703 10.38C139.343 10.38 139.011 10.444 138.707 10.572C138.403 10.7 138.139 10.884 137.915 11.124C137.699 11.364 137.531 11.652 137.411 11.988C137.291 12.324 137.231 12.7 137.231 13.116V14.508C137.231 14.924 137.291 15.3 137.411 15.636C137.531 15.972 137.699 16.26 137.915 16.5C138.139 16.74 138.403 16.924 138.707 17.052C139.011 17.18 139.343 17.244 139.703 17.244ZM145.371 9.12H146.331V12.816H146.379C146.539 12.424 146.771 12.136 147.075 11.952C147.387 11.76 147.759 11.664 148.191 11.664C148.575 11.664 148.923 11.74 149.235 11.892C149.547 12.044 149.811 12.26 150.027 12.54C150.251 12.82 150.419 13.16 150.531 13.56C150.651 13.96 150.711 14.408 150.711 14.904C150.711 15.4 150.651 15.848 150.531 16.248C150.419 16.648 150.251 16.988 150.027 17.268C149.811 17.548 149.547 17.764 149.235 17.916C148.923 18.068 148.575 18.144 148.191 18.144C147.351 18.144 146.747 17.76 146.379 16.992H146.331V18H145.371V9.12ZM147.927 17.28C148.471 17.28 148.899 17.112 149.211 16.776C149.523 16.432 149.679 15.984 149.679 15.432V14.376C149.679 13.824 149.523 13.38 149.211 13.044C148.899 12.7 148.471 12.528 147.927 12.528C147.711 12.528 147.503 12.56 147.303 12.624C147.111 12.68 146.943 12.76 146.799 12.864C146.655 12.968 146.539 13.096 146.451 13.248C146.371 13.392 146.331 13.548 146.331 13.716V16.02C146.331 16.22 146.371 16.4 146.451 16.56C146.539 16.712 146.655 16.844 146.799 16.956C146.943 17.06 147.111 17.14 147.303 17.196C147.503 17.252 147.711 17.28 147.927 17.28ZM156.489 11.808H157.437L154.665 19.44C154.593 19.624 154.521 19.776 154.449 19.896C154.377 20.024 154.289 20.124 154.185 20.196C154.081 20.268 153.949 20.32 153.789 20.352C153.637 20.384 153.449 20.4 153.225 20.4H152.733V19.56H153.705L154.173 18.24L151.857 11.808H152.817L154.305 16.02L154.593 17.028H154.653L154.989 16.02L156.489 11.808ZM161.331 18.144C160.907 18.144 160.523 18.068 160.179 17.916C159.843 17.764 159.551 17.548 159.303 17.268C159.063 16.98 158.875 16.64 158.739 16.248C158.611 15.848 158.547 15.4 158.547 14.904C158.547 14.416 158.611 13.972 158.739 13.572C158.875 13.172 159.063 12.832 159.303 12.552C159.551 12.264 159.843 12.044 160.179 11.892C160.523 11.74 160.907 11.664 161.331 11.664C161.747 11.664 162.119 11.74 162.447 11.892C162.775 12.044 163.055 12.256 163.287 12.528C163.519 12.792 163.695 13.108 163.815 13.476C163.943 13.844 164.007 14.248 164.007 14.688V15.144H159.555V15.432C159.555 15.696 159.595 15.944 159.675 16.176C159.763 16.4 159.883 16.596 160.035 16.764C160.195 16.932 160.387 17.064 160.611 17.16C160.843 17.256 161.103 17.304 161.391 17.304C161.783 17.304 162.123 17.212 162.411 17.028C162.707 16.844 162.935 16.58 163.095 16.236L163.779 16.728C163.579 17.152 163.267 17.496 162.843 17.76C162.419 18.016 161.915 18.144 161.331 18.144ZM161.331 12.468C161.067 12.468 160.827 12.516 160.611 12.612C160.395 12.7 160.207 12.828 160.047 12.996C159.895 13.164 159.775 13.364 159.687 13.596C159.599 13.82 159.555 14.068 159.555 14.34V14.424H162.975V14.292C162.975 13.74 162.823 13.3 162.519 12.972C162.223 12.636 161.827 12.468 161.331 12.468ZM165.989 9.12H166.949V14.748H166.997L167.945 13.692L169.697 11.808H170.861L168.569 14.256L171.089 18H169.925L167.873 14.844L166.949 15.792V18H165.989V9.12ZM173.968 18C173.632 18 173.376 17.908 173.2 17.724C173.032 17.532 172.948 17.284 172.948 16.98V12.648H171.928V11.808H172.504C172.712 11.808 172.852 11.768 172.924 11.688C173.004 11.6 173.044 11.452 173.044 11.244V10.092H173.908V11.808H175.264V12.648H173.908V17.16H175.168V18H173.968ZM180.443 18V11.808H181.403V12.816H181.451C181.603 12.464 181.815 12.184 182.087 11.976C182.367 11.768 182.739 11.664 183.203 11.664C183.843 11.664 184.347 11.872 184.715 12.288C185.091 12.696 185.279 13.276 185.279 14.028V18H184.319V14.196C184.319 13.084 183.851 12.528 182.915 12.528C182.723 12.528 182.535 12.552 182.351 12.6C182.175 12.648 182.015 12.72 181.871 12.816C181.727 12.912 181.611 13.036 181.523 13.188C181.443 13.332 181.403 13.504 181.403 13.704V18H180.443ZM190.003 18.144C189.587 18.144 189.207 18.068 188.863 17.916C188.519 17.764 188.223 17.548 187.975 17.268C187.735 16.98 187.547 16.64 187.411 16.248C187.275 15.848 187.207 15.4 187.207 14.904C187.207 14.416 187.275 13.972 187.411 13.572C187.547 13.172 187.735 12.832 187.975 12.552C188.223 12.264 188.519 12.044 188.863 11.892C189.207 11.74 189.587 11.664 190.003 11.664C190.419 11.664 190.795 11.74 191.131 11.892C191.475 12.044 191.771 12.264 192.019 12.552C192.267 12.832 192.459 13.172 192.595 13.572C192.731 13.972 192.799 14.416 192.799 14.904C192.799 15.4 192.731 15.848 192.595 16.248C192.459 16.64 192.267 16.98 192.019 17.268C191.771 17.548 191.475 17.764 191.131 17.916C190.795 18.068 190.419 18.144 190.003 18.144ZM190.003 17.292C190.523 17.292 190.947 17.132 191.275 16.812C191.603 16.492 191.767 16.004 191.767 15.348V14.46C191.767 13.804 191.603 13.316 191.275 12.996C190.947 12.676 190.523 12.516 190.003 12.516C189.483 12.516 189.059 12.676 188.731 12.996C188.403 13.316 188.239 13.804 188.239 14.46V15.348C188.239 16.004 188.403 16.492 188.731 16.812C189.059 17.132 189.483 17.292 190.003 17.292ZM194.778 18V11.808H195.738V12.816H195.786C195.858 12.656 195.938 12.508 196.026 12.372C196.122 12.228 196.234 12.104 196.362 12C196.498 11.896 196.654 11.816 196.83 11.76C197.006 11.696 197.214 11.664 197.454 11.664C197.862 11.664 198.238 11.764 198.582 11.964C198.926 12.156 199.182 12.476 199.35 12.924H199.374C199.486 12.588 199.694 12.296 199.998 12.048C200.31 11.792 200.73 11.664 201.258 11.664C201.89 11.664 202.382 11.872 202.734 12.288C203.094 12.696 203.274 13.276 203.274 14.028V18H202.314V14.196C202.314 13.644 202.206 13.228 201.99 12.948C201.774 12.668 201.43 12.528 200.958 12.528C200.766 12.528 200.582 12.552 200.406 12.6C200.238 12.648 200.086 12.72 199.95 12.816C199.814 12.912 199.706 13.036 199.626 13.188C199.546 13.332 199.506 13.504 199.506 13.704V18H198.546V14.196C198.546 13.644 198.438 13.228 198.222 12.948C198.006 12.668 197.67 12.528 197.214 12.528C197.022 12.528 196.838 12.552 196.662 12.6C196.486 12.648 196.33 12.72 196.194 12.816C196.058 12.912 195.946 13.036 195.858 13.188C195.778 13.332 195.738 13.504 195.738 13.704V18H194.778ZM206.134 10.356C205.926 10.356 205.774 10.308 205.678 10.212C205.59 10.108 205.546 9.976 205.546 9.816V9.66C205.546 9.5 205.59 9.372 205.678 9.276C205.774 9.172 205.926 9.12 206.134 9.12C206.342 9.12 206.49 9.172 206.578 9.276C206.674 9.372 206.722 9.5 206.722 9.66V9.816C206.722 9.976 206.674 10.108 206.578 10.212C206.49 10.308 206.342 10.356 206.134 10.356ZM205.654 11.808H206.614V18H205.654V11.808ZM213.658 18L211.486 11.808H212.446L213.526 14.88L214.198 16.992H214.258L214.93 14.88L216.034 11.808H216.958L214.774 18H213.658ZM222.991 18C222.631 18 222.371 17.904 222.211 17.712C222.059 17.52 221.963 17.28 221.923 16.992H221.863C221.727 17.376 221.503 17.664 221.191 17.856C220.879 18.048 220.507 18.144 220.075 18.144C219.419 18.144 218.907 17.976 218.539 17.64C218.179 17.304 217.999 16.848 217.999 16.272C217.999 15.688 218.211 15.24 218.635 14.928C219.067 14.616 219.735 14.46 220.639 14.46H221.863V13.848C221.863 13.408 221.743 13.072 221.503 12.84C221.263 12.608 220.895 12.492 220.399 12.492C220.023 12.492 219.707 12.576 219.451 12.744C219.203 12.912 218.995 13.136 218.827 13.416L218.251 12.876C218.419 12.54 218.687 12.256 219.055 12.024C219.423 11.784 219.887 11.664 220.447 11.664C221.199 11.664 221.783 11.848 222.199 12.216C222.615 12.584 222.823 13.096 222.823 13.752V17.16H223.531V18H222.991ZM220.231 17.328C220.471 17.328 220.691 17.3 220.891 17.244C221.091 17.188 221.263 17.108 221.407 17.004C221.551 16.9 221.663 16.78 221.743 16.644C221.823 16.508 221.863 16.36 221.863 16.2V15.18H220.591C220.039 15.18 219.635 15.26 219.379 15.42C219.131 15.58 219.007 15.812 219.007 16.116V16.368C219.007 16.672 219.115 16.908 219.331 17.076C219.555 17.244 219.855 17.328 220.231 17.328ZM230.397 18.144C229.821 18.144 229.337 18.036 228.945 17.82C228.561 17.596 228.229 17.3 227.949 16.932L228.633 16.38C228.873 16.684 229.141 16.92 229.437 17.088C229.733 17.248 230.077 17.328 230.469 17.328C230.877 17.328 231.193 17.24 231.417 17.064C231.649 16.888 231.765 16.64 231.765 16.32C231.765 16.08 231.685 15.876 231.525 15.708C231.373 15.532 231.093 15.412 230.685 15.348L230.193 15.276C229.905 15.236 229.641 15.176 229.401 15.096C229.161 15.008 228.949 14.896 228.765 14.76C228.589 14.616 228.449 14.44 228.345 14.232C228.249 14.024 228.201 13.776 228.201 13.488C228.201 13.184 228.257 12.92 228.369 12.696C228.481 12.464 228.633 12.272 228.825 12.12C229.025 11.968 229.261 11.856 229.533 11.784C229.805 11.704 230.097 11.664 230.409 11.664C230.913 11.664 231.333 11.752 231.669 11.928C232.013 12.104 232.313 12.348 232.569 12.66L231.933 13.236C231.797 13.044 231.597 12.872 231.333 12.72C231.069 12.56 230.737 12.48 230.337 12.48C229.937 12.48 229.633 12.568 229.425 12.744C229.225 12.912 229.125 13.144 229.125 13.44C229.125 13.744 229.225 13.964 229.425 14.1C229.633 14.236 229.929 14.336 230.313 14.4L230.793 14.472C231.481 14.576 231.969 14.776 232.257 15.072C232.545 15.36 232.689 15.74 232.689 16.212C232.689 16.812 232.485 17.284 232.077 17.628C231.669 17.972 231.109 18.144 230.397 18.144ZM237.125 18.144C236.709 18.144 236.329 18.068 235.985 17.916C235.641 17.764 235.345 17.548 235.097 17.268C234.857 16.98 234.669 16.64 234.533 16.248C234.397 15.848 234.329 15.4 234.329 14.904C234.329 14.416 234.397 13.972 234.533 13.572C234.669 13.172 234.857 12.832 235.097 12.552C235.345 12.264 235.641 12.044 235.985 11.892C236.329 11.74 236.709 11.664 237.125 11.664C237.541 11.664 237.917 11.74 238.253 11.892C238.597 12.044 238.893 12.264 239.141 12.552C239.389 12.832 239.581 13.172 239.717 13.572C239.853 13.972 239.921 14.416 239.921 14.904C239.921 15.4 239.853 15.848 239.717 16.248C239.581 16.64 239.389 16.98 239.141 17.268C238.893 17.548 238.597 17.764 238.253 17.916C237.917 18.068 237.541 18.144 237.125 18.144ZM237.125 17.292C237.645 17.292 238.069 17.132 238.397 16.812C238.725 16.492 238.889 16.004 238.889 15.348V14.46C238.889 13.804 238.725 13.316 238.397 12.996C238.069 12.676 237.645 12.516 237.125 12.516C236.605 12.516 236.181 12.676 235.853 12.996C235.525 13.316 235.361 13.804 235.361 14.46V15.348C235.361 16.004 235.525 16.492 235.853 16.812C236.181 17.132 236.605 17.292 237.125 17.292ZM241.9 18V11.808H242.86V12.816H242.908C243.06 12.464 243.272 12.184 243.544 11.976C243.824 11.768 244.196 11.664 244.66 11.664C245.3 11.664 245.804 11.872 246.172 12.288C246.548 12.696 246.736 13.276 246.736 14.028V18H245.776V14.196C245.776 13.084 245.308 12.528 244.372 12.528C244.18 12.528 243.992 12.552 243.808 12.6C243.632 12.648 243.472 12.72 243.328 12.816C243.184 12.912 243.068 13.036 242.98 13.188C242.9 13.332 242.86 13.504 242.86 13.704V18H241.9ZM249.6 10.356C249.392 10.356 249.24 10.308 249.144 10.212C249.056 10.108 249.012 9.976 249.012 9.816V9.66C249.012 9.5 249.056 9.372 249.144 9.276C249.24 9.172 249.392 9.12 249.6 9.12C249.808 9.12 249.956 9.172 250.044 9.276C250.14 9.372 250.188 9.5 250.188 9.66V9.816C250.188 9.976 250.14 10.108 250.044 10.212C249.956 10.308 249.808 10.356 249.6 10.356ZM249.12 11.808H250.08V18H249.12V11.808Z" fill="white"/>
<g opacity="0.8">
<rect x="0.5" y="26" width="247" height="26" fill="#3D8DFF"/>
<path d="M127.703 44.144C127.159 44.144 126.667 44.052 126.227 43.868C125.795 43.676 125.423 43.4 125.111 43.04C124.807 42.672 124.571 42.22 124.403 41.684C124.235 41.14 124.151 40.516 124.151 39.812C124.151 39.108 124.235 38.488 124.403 37.952C124.571 37.416 124.807 36.964 125.111 36.596C125.423 36.228 125.795 35.952 126.227 35.768C126.667 35.576 127.159 35.48 127.703 35.48C128.239 35.48 128.727 35.576 129.167 35.768C129.607 35.952 129.979 36.228 130.283 36.596C130.595 36.964 130.835 37.416 131.003 37.952C131.171 38.488 131.255 39.108 131.255 39.812C131.255 40.516 131.171 41.14 131.003 41.684C130.835 42.22 130.595 42.672 130.283 43.04C129.979 43.4 129.607 43.676 129.167 43.868C128.727 44.052 128.239 44.144 127.703 44.144ZM127.703 43.244C128.063 43.244 128.395 43.18 128.699 43.052C129.003 42.924 129.263 42.74 129.479 42.5C129.703 42.26 129.875 41.972 129.995 41.636C130.115 41.3 130.175 40.924 130.175 40.508V39.116C130.175 38.7 130.115 38.324 129.995 37.988C129.875 37.652 129.703 37.364 129.479 37.124C129.263 36.884 129.003 36.7 128.699 36.572C128.395 36.444 128.063 36.38 127.703 36.38C127.343 36.38 127.011 36.444 126.707 36.572C126.403 36.7 126.139 36.884 125.915 37.124C125.699 37.364 125.531 37.652 125.411 37.988C125.291 38.324 125.231 38.7 125.231 39.116V40.508C125.231 40.924 125.291 41.3 125.411 41.636C125.531 41.972 125.699 42.26 125.915 42.5C126.139 42.74 126.403 42.924 126.707 43.052C127.011 43.18 127.343 43.244 127.703 43.244ZM133.371 35.12H134.331V38.816H134.379C134.539 38.424 134.771 38.136 135.075 37.952C135.387 37.76 135.759 37.664 136.191 37.664C136.575 37.664 136.923 37.74 137.235 37.892C137.547 38.044 137.811 38.26 138.027 38.54C138.251 38.82 138.419 39.16 138.531 39.56C138.651 39.96 138.711 40.408 138.711 40.904C138.711 41.4 138.651 41.848 138.531 42.248C138.419 42.648 138.251 42.988 138.027 43.268C137.811 43.548 137.547 43.764 137.235 43.916C136.923 44.068 136.575 44.144 136.191 44.144C135.351 44.144 134.747 43.76 134.379 42.992H134.331V44H133.371V35.12ZM135.927 43.28C136.471 43.28 136.899 43.112 137.211 42.776C137.523 42.432 137.679 41.984 137.679 41.432V40.376C137.679 39.824 137.523 39.38 137.211 39.044C136.899 38.7 136.471 38.528 135.927 38.528C135.711 38.528 135.503 38.56 135.303 38.624C135.111 38.68 134.943 38.76 134.799 38.864C134.655 38.968 134.539 39.096 134.451 39.248C134.371 39.392 134.331 39.548 134.331 39.716V42.02C134.331 42.22 134.371 42.4 134.451 42.56C134.539 42.712 134.655 42.844 134.799 42.956C134.943 43.06 135.111 43.14 135.303 43.196C135.503 43.252 135.711 43.28 135.927 43.28ZM144.489 37.808H145.437L142.665 45.44C142.593 45.624 142.521 45.776 142.449 45.896C142.377 46.024 142.289 46.124 142.185 46.196C142.081 46.268 141.949 46.32 141.789 46.352C141.637 46.384 141.449 46.4 141.225 46.4H140.733V45.56H141.705L142.173 44.24L139.857 37.808H140.817L142.305 42.02L142.593 43.028H142.653L142.989 42.02L144.489 37.808ZM149.331 44.144C148.907 44.144 148.523 44.068 148.179 43.916C147.843 43.764 147.551 43.548 147.303 43.268C147.063 42.98 146.875 42.64 146.739 42.248C146.611 41.848 146.547 41.4 146.547 40.904C146.547 40.416 146.611 39.972 146.739 39.572C146.875 39.172 147.063 38.832 147.303 38.552C147.551 38.264 147.843 38.044 148.179 37.892C148.523 37.74 148.907 37.664 149.331 37.664C149.747 37.664 150.119 37.74 150.447 37.892C150.775 38.044 151.055 38.256 151.287 38.528C151.519 38.792 151.695 39.108 151.815 39.476C151.943 39.844 152.007 40.248 152.007 40.688V41.144H147.555V41.432C147.555 41.696 147.595 41.944 147.675 42.176C147.763 42.4 147.883 42.596 148.035 42.764C148.195 42.932 148.387 43.064 148.611 43.16C148.843 43.256 149.103 43.304 149.391 43.304C149.783 43.304 150.123 43.212 150.411 43.028C150.707 42.844 150.935 42.58 151.095 42.236L151.779 42.728C151.579 43.152 151.267 43.496 150.843 43.76C150.419 44.016 149.915 44.144 149.331 44.144ZM149.331 38.468C149.067 38.468 148.827 38.516 148.611 38.612C148.395 38.7 148.207 38.828 148.047 38.996C147.895 39.164 147.775 39.364 147.687 39.596C147.599 39.82 147.555 40.068 147.555 40.34V40.424H150.975V40.292C150.975 39.74 150.823 39.3 150.519 38.972C150.223 38.636 149.827 38.468 149.331 38.468ZM153.989 35.12H154.949V40.748H154.997L155.945 39.692L157.697 37.808H158.861L156.569 40.256L159.089 44H157.925L155.873 40.844L154.949 41.792V44H153.989V35.12ZM161.968 44C161.632 44 161.376 43.908 161.2 43.724C161.032 43.532 160.948 43.284 160.948 42.98V38.648H159.928V37.808H160.504C160.712 37.808 160.852 37.768 160.924 37.688C161.004 37.6 161.044 37.452 161.044 37.244V36.092H161.908V37.808H163.264V38.648H161.908V43.16H163.168V44H161.968ZM168.443 44V37.808H169.403V38.816H169.451C169.603 38.464 169.815 38.184 170.087 37.976C170.367 37.768 170.739 37.664 171.203 37.664C171.843 37.664 172.347 37.872 172.715 38.288C173.091 38.696 173.279 39.276 173.279 40.028V44H172.319V40.196C172.319 39.084 171.851 38.528 170.915 38.528C170.723 38.528 170.535 38.552 170.351 38.6C170.175 38.648 170.015 38.72 169.871 38.816C169.727 38.912 169.611 39.036 169.523 39.188C169.443 39.332 169.403 39.504 169.403 39.704V44H168.443ZM178.003 44.144C177.587 44.144 177.207 44.068 176.863 43.916C176.519 43.764 176.223 43.548 175.975 43.268C175.735 42.98 175.547 42.64 175.411 42.248C175.275 41.848 175.207 41.4 175.207 40.904C175.207 40.416 175.275 39.972 175.411 39.572C175.547 39.172 175.735 38.832 175.975 38.552C176.223 38.264 176.519 38.044 176.863 37.892C177.207 37.74 177.587 37.664 178.003 37.664C178.419 37.664 178.795 37.74 179.131 37.892C179.475 38.044 179.771 38.264 180.019 38.552C180.267 38.832 180.459 39.172 180.595 39.572C180.731 39.972 180.799 40.416 180.799 40.904C180.799 41.4 180.731 41.848 180.595 42.248C180.459 42.64 180.267 42.98 180.019 43.268C179.771 43.548 179.475 43.764 179.131 43.916C178.795 44.068 178.419 44.144 178.003 44.144ZM178.003 43.292C178.523 43.292 178.947 43.132 179.275 42.812C179.603 42.492 179.767 42.004 179.767 41.348V40.46C179.767 39.804 179.603 39.316 179.275 38.996C178.947 38.676 178.523 38.516 178.003 38.516C177.483 38.516 177.059 38.676 176.731 38.996C176.403 39.316 176.239 39.804 176.239 40.46V41.348C176.239 42.004 176.403 42.492 176.731 42.812C177.059 43.132 177.483 43.292 178.003 43.292ZM182.778 44V37.808H183.738V38.816H183.786C183.858 38.656 183.938 38.508 184.026 38.372C184.122 38.228 184.234 38.104 184.362 38C184.498 37.896 184.654 37.816 184.83 37.76C185.006 37.696 185.214 37.664 185.454 37.664C185.862 37.664 186.238 37.764 186.582 37.964C186.926 38.156 187.182 38.476 187.35 38.924H187.374C187.486 38.588 187.694 38.296 187.998 38.048C188.31 37.792 188.73 37.664 189.258 37.664C189.89 37.664 190.382 37.872 190.734 38.288C191.094 38.696 191.274 39.276 191.274 40.028V44H190.314V40.196C190.314 39.644 190.206 39.228 189.99 38.948C189.774 38.668 189.43 38.528 188.958 38.528C188.766 38.528 188.582 38.552 188.406 38.6C188.238 38.648 188.086 38.72 187.95 38.816C187.814 38.912 187.706 39.036 187.626 39.188C187.546 39.332 187.506 39.504 187.506 39.704V44H186.546V40.196C186.546 39.644 186.438 39.228 186.222 38.948C186.006 38.668 185.67 38.528 185.214 38.528C185.022 38.528 184.838 38.552 184.662 38.6C184.486 38.648 184.33 38.72 184.194 38.816C184.058 38.912 183.946 39.036 183.858 39.188C183.778 39.332 183.738 39.504 183.738 39.704V44H182.778ZM194.134 36.356C193.926 36.356 193.774 36.308 193.678 36.212C193.59 36.108 193.546 35.976 193.546 35.816V35.66C193.546 35.5 193.59 35.372 193.678 35.276C193.774 35.172 193.926 35.12 194.134 35.12C194.342 35.12 194.49 35.172 194.578 35.276C194.674 35.372 194.722 35.5 194.722 35.66V35.816C194.722 35.976 194.674 36.108 194.578 36.212C194.49 36.308 194.342 36.356 194.134 36.356ZM193.654 37.808H194.614V44H193.654V37.808ZM201.658 44L199.486 37.808H200.446L201.526 40.88L202.198 42.992H202.258L202.93 40.88L204.034 37.808H204.958L202.774 44H201.658ZM210.991 44C210.631 44 210.371 43.904 210.211 43.712C210.059 43.52 209.963 43.28 209.923 42.992H209.863C209.727 43.376 209.503 43.664 209.191 43.856C208.879 44.048 208.507 44.144 208.075 44.144C207.419 44.144 206.907 43.976 206.539 43.64C206.179 43.304 205.999 42.848 205.999 42.272C205.999 41.688 206.211 41.24 206.635 40.928C207.067 40.616 207.735 40.46 208.639 40.46H209.863V39.848C209.863 39.408 209.743 39.072 209.503 38.84C209.263 38.608 208.895 38.492 208.399 38.492C208.023 38.492 207.707 38.576 207.451 38.744C207.203 38.912 206.995 39.136 206.827 39.416L206.251 38.876C206.419 38.54 206.687 38.256 207.055 38.024C207.423 37.784 207.887 37.664 208.447 37.664C209.199 37.664 209.783 37.848 210.199 38.216C210.615 38.584 210.823 39.096 210.823 39.752V43.16H211.531V44H210.991ZM208.231 43.328C208.471 43.328 208.691 43.3 208.891 43.244C209.091 43.188 209.263 43.108 209.407 43.004C209.551 42.9 209.663 42.78 209.743 42.644C209.823 42.508 209.863 42.36 209.863 42.2V41.18H208.591C208.039 41.18 207.635 41.26 207.379 41.42C207.131 41.58 207.007 41.812 207.007 42.116V42.368C207.007 42.672 207.115 42.908 207.331 43.076C207.555 43.244 207.855 43.328 208.231 43.328ZM218.397 44.144C217.821 44.144 217.337 44.036 216.945 43.82C216.561 43.596 216.229 43.3 215.949 42.932L216.633 42.38C216.873 42.684 217.141 42.92 217.437 43.088C217.733 43.248 218.077 43.328 218.469 43.328C218.877 43.328 219.193 43.24 219.417 43.064C219.649 42.888 219.765 42.64 219.765 42.32C219.765 42.08 219.685 41.876 219.525 41.708C219.373 41.532 219.093 41.412 218.685 41.348L218.193 41.276C217.905 41.236 217.641 41.176 217.401 41.096C217.161 41.008 216.949 40.896 216.765 40.76C216.589 40.616 216.449 40.44 216.345 40.232C216.249 40.024 216.201 39.776 216.201 39.488C216.201 39.184 216.257 38.92 216.369 38.696C216.481 38.464 216.633 38.272 216.825 38.12C217.025 37.968 217.261 37.856 217.533 37.784C217.805 37.704 218.097 37.664 218.409 37.664C218.913 37.664 219.333 37.752 219.669 37.928C220.013 38.104 220.313 38.348 220.569 38.66L219.933 39.236C219.797 39.044 219.597 38.872 219.333 38.72C219.069 38.56 218.737 38.48 218.337 38.48C217.937 38.48 217.633 38.568 217.425 38.744C217.225 38.912 217.125 39.144 217.125 39.44C217.125 39.744 217.225 39.964 217.425 40.1C217.633 40.236 217.929 40.336 218.313 40.4L218.793 40.472C219.481 40.576 219.969 40.776 220.257 41.072C220.545 41.36 220.689 41.74 220.689 42.212C220.689 42.812 220.485 43.284 220.077 43.628C219.669 43.972 219.109 44.144 218.397 44.144ZM225.125 44.144C224.709 44.144 224.329 44.068 223.985 43.916C223.641 43.764 223.345 43.548 223.097 43.268C222.857 42.98 222.669 42.64 222.533 42.248C222.397 41.848 222.329 41.4 222.329 40.904C222.329 40.416 222.397 39.972 222.533 39.572C222.669 39.172 222.857 38.832 223.097 38.552C223.345 38.264 223.641 38.044 223.985 37.892C224.329 37.74 224.709 37.664 225.125 37.664C225.541 37.664 225.917 37.74 226.253 37.892C226.597 38.044 226.893 38.264 227.141 38.552C227.389 38.832 227.581 39.172 227.717 39.572C227.853 39.972 227.921 40.416 227.921 40.904C227.921 41.4 227.853 41.848 227.717 42.248C227.581 42.64 227.389 42.98 227.141 43.268C226.893 43.548 226.597 43.764 226.253 43.916C225.917 44.068 225.541 44.144 225.125 44.144ZM225.125 43.292C225.645 43.292 226.069 43.132 226.397 42.812C226.725 42.492 226.889 42.004 226.889 41.348V40.46C226.889 39.804 226.725 39.316 226.397 38.996C226.069 38.676 225.645 38.516 225.125 38.516C224.605 38.516 224.181 38.676 223.853 38.996C223.525 39.316 223.361 39.804 223.361 40.46V41.348C223.361 42.004 223.525 42.492 223.853 42.812C224.181 43.132 224.605 43.292 225.125 43.292ZM229.9 44V37.808H230.86V38.816H230.908C231.06 38.464 231.272 38.184 231.544 37.976C231.824 37.768 232.196 37.664 232.66 37.664C233.3 37.664 233.804 37.872 234.172 38.288C234.548 38.696 234.736 39.276 234.736 40.028V44H233.776V40.196C233.776 39.084 233.308 38.528 232.372 38.528C232.18 38.528 231.992 38.552 231.808 38.6C231.632 38.648 231.472 38.72 231.328 38.816C231.184 38.912 231.068 39.036 230.98 39.188C230.9 39.332 230.86 39.504 230.86 39.704V44H229.9ZM237.6 36.356C237.392 36.356 237.24 36.308 237.144 36.212C237.056 36.108 237.012 35.976 237.012 35.816V35.66C237.012 35.5 237.056 35.372 237.144 35.276C237.24 35.172 237.392 35.12 237.6 35.12C237.808 35.12 237.956 35.172 238.044 35.276C238.14 35.372 238.188 35.5 238.188 35.66V35.816C238.188 35.976 238.14 36.108 238.044 36.212C237.956 36.308 237.808 36.356 237.6 36.356ZM237.12 37.808H238.08V44H237.12V37.808Z" fill="white"/>
</g>
<g opacity="0.64">
<rect x="0.5" y="52" width="221" height="26" fill="#3D8DFF"/>
<path d="M101.703 70.144C101.159 70.144 100.667 70.052 100.227 69.868C99.7947 69.676 99.4227 69.4 99.1107 69.04C98.8067 68.672 98.5707 68.22 98.4027 67.684C98.2347 67.14 98.1507 66.516 98.1507 65.812C98.1507 65.108 98.2347 64.488 98.4027 63.952C98.5707 63.416 98.8067 62.964 99.1107 62.596C99.4227 62.228 99.7947 61.952 100.227 61.768C100.667 61.576 101.159 61.48 101.703 61.48C102.239 61.48 102.727 61.576 103.167 61.768C103.607 61.952 103.979 62.228 104.283 62.596C104.595 62.964 104.835 63.416 105.003 63.952C105.171 64.488 105.255 65.108 105.255 65.812C105.255 66.516 105.171 67.14 105.003 67.684C104.835 68.22 104.595 68.672 104.283 69.04C103.979 69.4 103.607 69.676 103.167 69.868C102.727 70.052 102.239 70.144 101.703 70.144ZM101.703 69.244C102.063 69.244 102.395 69.18 102.699 69.052C103.003 68.924 103.263 68.74 103.479 68.5C103.703 68.26 103.875 67.972 103.995 67.636C104.115 67.3 104.175 66.924 104.175 66.508V65.116C104.175 64.7 104.115 64.324 103.995 63.988C103.875 63.652 103.703 63.364 103.479 63.124C103.263 62.884 103.003 62.7 102.699 62.572C102.395 62.444 102.063 62.38 101.703 62.38C101.343 62.38 101.011 62.444 100.707 62.572C100.403 62.7 100.139 62.884 99.9147 63.124C99.6987 63.364 99.5307 63.652 99.4107 63.988C99.2907 64.324 99.2307 64.7 99.2307 65.116V66.508C99.2307 66.924 99.2907 67.3 99.4107 67.636C99.5307 67.972 99.6987 68.26 99.9147 68.5C100.139 68.74 100.403 68.924 100.707 69.052C101.011 69.18 101.343 69.244 101.703 69.244ZM107.371 61.12H108.331V64.816H108.379C108.539 64.424 108.771 64.136 109.075 63.952C109.387 63.76 109.759 63.664 110.191 63.664C110.575 63.664 110.923 63.74 111.235 63.892C111.547 64.044 111.811 64.26 112.027 64.54C112.251 64.82 112.419 65.16 112.531 65.56C112.651 65.96 112.711 66.408 112.711 66.904C112.711 67.4 112.651 67.848 112.531 68.248C112.419 68.648 112.251 68.988 112.027 69.268C111.811 69.548 111.547 69.764 111.235 69.916C110.923 70.068 110.575 70.144 110.191 70.144C109.351 70.144 108.747 69.76 108.379 68.992H108.331V70H107.371V61.12ZM109.927 69.28C110.471 69.28 110.899 69.112 111.211 68.776C111.523 68.432 111.679 67.984 111.679 67.432V66.376C111.679 65.824 111.523 65.38 111.211 65.044C110.899 64.7 110.471 64.528 109.927 64.528C109.711 64.528 109.503 64.56 109.303 64.624C109.111 64.68 108.943 64.76 108.799 64.864C108.655 64.968 108.539 65.096 108.451 65.248C108.371 65.392 108.331 65.548 108.331 65.716V68.02C108.331 68.22 108.371 68.4 108.451 68.56C108.539 68.712 108.655 68.844 108.799 68.956C108.943 69.06 109.111 69.14 109.303 69.196C109.503 69.252 109.711 69.28 109.927 69.28ZM118.489 63.808H119.437L116.665 71.44C116.593 71.624 116.521 71.776 116.449 71.896C116.377 72.024 116.289 72.124 116.185 72.196C116.081 72.268 115.949 72.32 115.789 72.352C115.637 72.384 115.449 72.4 115.225 72.4H114.733V71.56H115.705L116.173 70.24L113.857 63.808H114.817L116.305 68.02L116.593 69.028H116.653L116.989 68.02L118.489 63.808ZM123.331 70.144C122.907 70.144 122.523 70.068 122.179 69.916C121.843 69.764 121.551 69.548 121.303 69.268C121.063 68.98 120.875 68.64 120.739 68.248C120.611 67.848 120.547 67.4 120.547 66.904C120.547 66.416 120.611 65.972 120.739 65.572C120.875 65.172 121.063 64.832 121.303 64.552C121.551 64.264 121.843 64.044 122.179 63.892C122.523 63.74 122.907 63.664 123.331 63.664C123.747 63.664 124.119 63.74 124.447 63.892C124.775 64.044 125.055 64.256 125.287 64.528C125.519 64.792 125.695 65.108 125.815 65.476C125.943 65.844 126.007 66.248 126.007 66.688V67.144H121.555V67.432C121.555 67.696 121.595 67.944 121.675 68.176C121.763 68.4 121.883 68.596 122.035 68.764C122.195 68.932 122.387 69.064 122.611 69.16C122.843 69.256 123.103 69.304 123.391 69.304C123.783 69.304 124.123 69.212 124.411 69.028C124.707 68.844 124.935 68.58 125.095 68.236L125.779 68.728C125.579 69.152 125.267 69.496 124.843 69.76C124.419 70.016 123.915 70.144 123.331 70.144ZM123.331 64.468C123.067 64.468 122.827 64.516 122.611 64.612C122.395 64.7 122.207 64.828 122.047 64.996C121.895 65.164 121.775 65.364 121.687 65.596C121.599 65.82 121.555 66.068 121.555 66.34V66.424H124.975V66.292C124.975 65.74 124.823 65.3 124.519 64.972C124.223 64.636 123.827 64.468 123.331 64.468ZM127.989 61.12H128.949V66.748H128.997L129.945 65.692L131.697 63.808H132.861L130.569 66.256L133.089 70H131.925L129.873 66.844L128.949 67.792V70H127.989V61.12ZM135.968 70C135.632 70 135.376 69.908 135.2 69.724C135.032 69.532 134.948 69.284 134.948 68.98V64.648H133.928V63.808H134.504C134.712 63.808 134.852 63.768 134.924 63.688C135.004 63.6 135.044 63.452 135.044 63.244V62.092H135.908V63.808H137.264V64.648H135.908V69.16H137.168V70H135.968ZM142.443 70V63.808H143.403V64.816H143.451C143.603 64.464 143.815 64.184 144.087 63.976C144.367 63.768 144.739 63.664 145.203 63.664C145.843 63.664 146.347 63.872 146.715 64.288C147.091 64.696 147.279 65.276 147.279 66.028V70H146.319V66.196C146.319 65.084 145.851 64.528 144.915 64.528C144.723 64.528 144.535 64.552 144.351 64.6C144.175 64.648 144.015 64.72 143.871 64.816C143.727 64.912 143.611 65.036 143.523 65.188C143.443 65.332 143.403 65.504 143.403 65.704V70H142.443ZM152.003 70.144C151.587 70.144 151.207 70.068 150.863 69.916C150.519 69.764 150.223 69.548 149.975 69.268C149.735 68.98 149.547 68.64 149.411 68.248C149.275 67.848 149.207 67.4 149.207 66.904C149.207 66.416 149.275 65.972 149.411 65.572C149.547 65.172 149.735 64.832 149.975 64.552C150.223 64.264 150.519 64.044 150.863 63.892C151.207 63.74 151.587 63.664 152.003 63.664C152.419 63.664 152.795 63.74 153.131 63.892C153.475 64.044 153.771 64.264 154.019 64.552C154.267 64.832 154.459 65.172 154.595 65.572C154.731 65.972 154.799 66.416 154.799 66.904C154.799 67.4 154.731 67.848 154.595 68.248C154.459 68.64 154.267 68.98 154.019 69.268C153.771 69.548 153.475 69.764 153.131 69.916C152.795 70.068 152.419 70.144 152.003 70.144ZM152.003 69.292C152.523 69.292 152.947 69.132 153.275 68.812C153.603 68.492 153.767 68.004 153.767 67.348V66.46C153.767 65.804 153.603 65.316 153.275 64.996C152.947 64.676 152.523 64.516 152.003 64.516C151.483 64.516 151.059 64.676 150.731 64.996C150.403 65.316 150.239 65.804 150.239 66.46V67.348C150.239 68.004 150.403 68.492 150.731 68.812C151.059 69.132 151.483 69.292 152.003 69.292ZM156.778 70V63.808H157.738V64.816H157.786C157.858 64.656 157.938 64.508 158.026 64.372C158.122 64.228 158.234 64.104 158.362 64C158.498 63.896 158.654 63.816 158.83 63.76C159.006 63.696 159.214 63.664 159.454 63.664C159.862 63.664 160.238 63.764 160.582 63.964C160.926 64.156 161.182 64.476 161.35 64.924H161.374C161.486 64.588 161.694 64.296 161.998 64.048C162.31 63.792 162.73 63.664 163.258 63.664C163.89 63.664 164.382 63.872 164.734 64.288C165.094 64.696 165.274 65.276 165.274 66.028V70H164.314V66.196C164.314 65.644 164.206 65.228 163.99 64.948C163.774 64.668 163.43 64.528 162.958 64.528C162.766 64.528 162.582 64.552 162.406 64.6C162.238 64.648 162.086 64.72 161.95 64.816C161.814 64.912 161.706 65.036 161.626 65.188C161.546 65.332 161.506 65.504 161.506 65.704V70H160.546V66.196C160.546 65.644 160.438 65.228 160.222 64.948C160.006 64.668 159.67 64.528 159.214 64.528C159.022 64.528 158.838 64.552 158.662 64.6C158.486 64.648 158.33 64.72 158.194 64.816C158.058 64.912 157.946 65.036 157.858 65.188C157.778 65.332 157.738 65.504 157.738 65.704V70H156.778ZM168.134 62.356C167.926 62.356 167.774 62.308 167.678 62.212C167.59 62.108 167.546 61.976 167.546 61.816V61.66C167.546 61.5 167.59 61.372 167.678 61.276C167.774 61.172 167.926 61.12 168.134 61.12C168.342 61.12 168.49 61.172 168.578 61.276C168.674 61.372 168.722 61.5 168.722 61.66V61.816C168.722 61.976 168.674 62.108 168.578 62.212C168.49 62.308 168.342 62.356 168.134 62.356ZM167.654 63.808H168.614V70H167.654V63.808ZM175.658 70L173.486 63.808H174.446L175.526 66.88L176.198 68.992H176.258L176.93 66.88L178.034 63.808H178.958L176.774 70H175.658ZM184.991 70C184.631 70 184.371 69.904 184.211 69.712C184.059 69.52 183.963 69.28 183.923 68.992H183.863C183.727 69.376 183.503 69.664 183.191 69.856C182.879 70.048 182.507 70.144 182.075 70.144C181.419 70.144 180.907 69.976 180.539 69.64C180.179 69.304 179.999 68.848 179.999 68.272C179.999 67.688 180.211 67.24 180.635 66.928C181.067 66.616 181.735 66.46 182.639 66.46H183.863V65.848C183.863 65.408 183.743 65.072 183.503 64.84C183.263 64.608 182.895 64.492 182.399 64.492C182.023 64.492 181.707 64.576 181.451 64.744C181.203 64.912 180.995 65.136 180.827 65.416L180.251 64.876C180.419 64.54 180.687 64.256 181.055 64.024C181.423 63.784 181.887 63.664 182.447 63.664C183.199 63.664 183.783 63.848 184.199 64.216C184.615 64.584 184.823 65.096 184.823 65.752V69.16H185.531V70H184.991ZM182.231 69.328C182.471 69.328 182.691 69.3 182.891 69.244C183.091 69.188 183.263 69.108 183.407 69.004C183.551 68.9 183.663 68.78 183.743 68.644C183.823 68.508 183.863 68.36 183.863 68.2V67.18H182.591C182.039 67.18 181.635 67.26 181.379 67.42C181.131 67.58 181.007 67.812 181.007 68.116V68.368C181.007 68.672 181.115 68.908 181.331 69.076C181.555 69.244 181.855 69.328 182.231 69.328ZM192.397 70.144C191.821 70.144 191.337 70.036 190.945 69.82C190.561 69.596 190.229 69.3 189.949 68.932L190.633 68.38C190.873 68.684 191.141 68.92 191.437 69.088C191.733 69.248 192.077 69.328 192.469 69.328C192.877 69.328 193.193 69.24 193.417 69.064C193.649 68.888 193.765 68.64 193.765 68.32C193.765 68.08 193.685 67.876 193.525 67.708C193.373 67.532 193.093 67.412 192.685 67.348L192.193 67.276C191.905 67.236 191.641 67.176 191.401 67.096C191.161 67.008 190.949 66.896 190.765 66.76C190.589 66.616 190.449 66.44 190.345 66.232C190.249 66.024 190.201 65.776 190.201 65.488C190.201 65.184 190.257 64.92 190.369 64.696C190.481 64.464 190.633 64.272 190.825 64.12C191.025 63.968 191.261 63.856 191.533 63.784C191.805 63.704 192.097 63.664 192.409 63.664C192.913 63.664 193.333 63.752 193.669 63.928C194.013 64.104 194.313 64.348 194.569 64.66L193.933 65.236C193.797 65.044 193.597 64.872 193.333 64.72C193.069 64.56 192.737 64.48 192.337 64.48C191.937 64.48 191.633 64.568 191.425 64.744C191.225 64.912 191.125 65.144 191.125 65.44C191.125 65.744 191.225 65.964 191.425 66.1C191.633 66.236 191.929 66.336 192.313 66.4L192.793 66.472C193.481 66.576 193.969 66.776 194.257 67.072C194.545 67.36 194.689 67.74 194.689 68.212C194.689 68.812 194.485 69.284 194.077 69.628C193.669 69.972 193.109 70.144 192.397 70.144ZM199.125 70.144C198.709 70.144 198.329 70.068 197.985 69.916C197.641 69.764 197.345 69.548 197.097 69.268C196.857 68.98 196.669 68.64 196.533 68.248C196.397 67.848 196.329 67.4 196.329 66.904C196.329 66.416 196.397 65.972 196.533 65.572C196.669 65.172 196.857 64.832 197.097 64.552C197.345 64.264 197.641 64.044 197.985 63.892C198.329 63.74 198.709 63.664 199.125 63.664C199.541 63.664 199.917 63.74 200.253 63.892C200.597 64.044 200.893 64.264 201.141 64.552C201.389 64.832 201.581 65.172 201.717 65.572C201.853 65.972 201.921 66.416 201.921 66.904C201.921 67.4 201.853 67.848 201.717 68.248C201.581 68.64 201.389 68.98 201.141 69.268C200.893 69.548 200.597 69.764 200.253 69.916C199.917 70.068 199.541 70.144 199.125 70.144ZM199.125 69.292C199.645 69.292 200.069 69.132 200.397 68.812C200.725 68.492 200.889 68.004 200.889 67.348V66.46C200.889 65.804 200.725 65.316 200.397 64.996C200.069 64.676 199.645 64.516 199.125 64.516C198.605 64.516 198.181 64.676 197.853 64.996C197.525 65.316 197.361 65.804 197.361 66.46V67.348C197.361 68.004 197.525 68.492 197.853 68.812C198.181 69.132 198.605 69.292 199.125 69.292ZM203.9 70V63.808H204.86V64.816H204.908C205.06 64.464 205.272 64.184 205.544 63.976C205.824 63.768 206.196 63.664 206.66 63.664C207.3 63.664 207.804 63.872 208.172 64.288C208.548 64.696 208.736 65.276 208.736 66.028V70H207.776V66.196C207.776 65.084 207.308 64.528 206.372 64.528C206.18 64.528 205.992 64.552 205.808 64.6C205.632 64.648 205.472 64.72 205.328 64.816C205.184 64.912 205.068 65.036 204.98 65.188C204.9 65.332 204.86 65.504 204.86 65.704V70H203.9ZM211.6 62.356C211.392 62.356 211.24 62.308 211.144 62.212C211.056 62.108 211.012 61.976 211.012 61.816V61.66C211.012 61.5 211.056 61.372 211.144 61.276C211.24 61.172 211.392 61.12 211.6 61.12C211.808 61.12 211.956 61.172 212.044 61.276C212.14 61.372 212.188 61.5 212.188 61.66V61.816C212.188 61.976 212.14 62.108 212.044 62.212C211.956 62.308 211.808 62.356 211.6 62.356ZM211.12 63.808H212.08V70H211.12V63.808Z" fill="white"/>
</g>
<g opacity="0.56">
<rect x="0.5" y="78" width="140" height="26" fill="#3D8DFF"/>
<path d="M20.7027 96.144C20.1587 96.144 19.6667 96.052 19.2267 95.868C18.7947 95.676 18.4227 95.4 18.1107 95.04C17.8067 94.672 17.5707 94.22 17.4027 93.684C17.2347 93.14 17.1507 92.516 17.1507 91.812C17.1507 91.108 17.2347 90.488 17.4027 89.952C17.5707 89.416 17.8067 88.964 18.1107 88.596C18.4227 88.228 18.7947 87.952 19.2267 87.768C19.6667 87.576 20.1587 87.48 20.7027 87.48C21.2387 87.48 21.7267 87.576 22.1667 87.768C22.6067 87.952 22.9787 88.228 23.2827 88.596C23.5947 88.964 23.8347 89.416 24.0027 89.952C24.1707 90.488 24.2547 91.108 24.2547 91.812C24.2547 92.516 24.1707 93.14 24.0027 93.684C23.8347 94.22 23.5947 94.672 23.2827 95.04C22.9787 95.4 22.6067 95.676 22.1667 95.868C21.7267 96.052 21.2387 96.144 20.7027 96.144ZM20.7027 95.244C21.0627 95.244 21.3947 95.18 21.6987 95.052C22.0027 94.924 22.2627 94.74 22.4787 94.5C22.7027 94.26 22.8747 93.972 22.9947 93.636C23.1147 93.3 23.1747 92.924 23.1747 92.508V91.116C23.1747 90.7 23.1147 90.324 22.9947 89.988C22.8747 89.652 22.7027 89.364 22.4787 89.124C22.2627 88.884 22.0027 88.7 21.6987 88.572C21.3947 88.444 21.0627 88.38 20.7027 88.38C20.3427 88.38 20.0107 88.444 19.7067 88.572C19.4027 88.7 19.1387 88.884 18.9147 89.124C18.6987 89.364 18.5307 89.652 18.4107 89.988C18.2907 90.324 18.2307 90.7 18.2307 91.116V92.508C18.2307 92.924 18.2907 93.3 18.4107 93.636C18.5307 93.972 18.6987 94.26 18.9147 94.5C19.1387 94.74 19.4027 94.924 19.7067 95.052C20.0107 95.18 20.3427 95.244 20.7027 95.244ZM26.3708 87.12H27.3308V90.816H27.3788C27.5388 90.424 27.7708 90.136 28.0748 89.952C28.3868 89.76 28.7588 89.664 29.1908 89.664C29.5748 89.664 29.9228 89.74 30.2348 89.892C30.5468 90.044 30.8108 90.26 31.0268 90.54C31.2508 90.82 31.4188 91.16 31.5308 91.56C31.6508 91.96 31.7108 92.408 31.7108 92.904C31.7108 93.4 31.6508 93.848 31.5308 94.248C31.4188 94.648 31.2508 94.988 31.0268 95.268C30.8108 95.548 30.5468 95.764 30.2348 95.916C29.9228 96.068 29.5748 96.144 29.1908 96.144C28.3508 96.144 27.7468 95.76 27.3788 94.992H27.3308V96H26.3708V87.12ZM28.9268 95.28C29.4708 95.28 29.8988 95.112 30.2108 94.776C30.5228 94.432 30.6788 93.984 30.6788 93.432V92.376C30.6788 91.824 30.5228 91.38 30.2108 91.044C29.8988 90.7 29.4708 90.528 28.9268 90.528C28.7108 90.528 28.5028 90.56 28.3028 90.624C28.1108 90.68 27.9428 90.76 27.7988 90.864C27.6548 90.968 27.5388 91.096 27.4508 91.248C27.3708 91.392 27.3308 91.548 27.3308 91.716V94.02C27.3308 94.22 27.3708 94.4 27.4508 94.56C27.5388 94.712 27.6548 94.844 27.7988 94.956C27.9428 95.06 28.1108 95.14 28.3028 95.196C28.5028 95.252 28.7108 95.28 28.9268 95.28ZM37.4891 89.808H38.4371L35.6651 97.44C35.5931 97.624 35.5211 97.776 35.4491 97.896C35.3771 98.024 35.2891 98.124 35.1851 98.196C35.0811 98.268 34.9491 98.32 34.7891 98.352C34.6371 98.384 34.4491 98.4 34.2251 98.4H33.7331V97.56H34.7051L35.1731 96.24L32.8571 89.808H33.8171L35.3051 94.02L35.5931 95.028H35.6531L35.9891 94.02L37.4891 89.808ZM42.3308 96.144C41.9068 96.144 41.5228 96.068 41.1788 95.916C40.8428 95.764 40.5508 95.548 40.3028 95.268C40.0628 94.98 39.8748 94.64 39.7388 94.248C39.6108 93.848 39.5468 93.4 39.5468 92.904C39.5468 92.416 39.6108 91.972 39.7388 91.572C39.8748 91.172 40.0628 90.832 40.3028 90.552C40.5508 90.264 40.8428 90.044 41.1788 89.892C41.5228 89.74 41.9068 89.664 42.3308 89.664C42.7468 89.664 43.1188 89.74 43.4468 89.892C43.7748 90.044 44.0548 90.256 44.2868 90.528C44.5188 90.792 44.6948 91.108 44.8148 91.476C44.9428 91.844 45.0068 92.248 45.0068 92.688V93.144H40.5548V93.432C40.5548 93.696 40.5948 93.944 40.6748 94.176C40.7628 94.4 40.8828 94.596 41.0348 94.764C41.1948 94.932 41.3868 95.064 41.6108 95.16C41.8428 95.256 42.1028 95.304 42.3908 95.304C42.7828 95.304 43.1228 95.212 43.4108 95.028C43.7068 94.844 43.9348 94.58 44.0948 94.236L44.7788 94.728C44.5788 95.152 44.2668 95.496 43.8428 95.76C43.4188 96.016 42.9148 96.144 42.3308 96.144ZM42.3308 90.468C42.0668 90.468 41.8268 90.516 41.6108 90.612C41.3948 90.7 41.2068 90.828 41.0468 90.996C40.8948 91.164 40.7748 91.364 40.6868 91.596C40.5988 91.82 40.5548 92.068 40.5548 92.34V92.424H43.9748V92.292C43.9748 91.74 43.8228 91.3 43.5188 90.972C43.2228 90.636 42.8268 90.468 42.3308 90.468ZM46.9888 87.12H47.9488V92.748H47.9968L48.9448 91.692L50.6968 89.808H51.8608L49.5688 92.256L52.0888 96H50.9248L48.8728 92.844L47.9488 93.792V96H46.9888V87.12ZM54.9677 96C54.6317 96 54.3757 95.908 54.1997 95.724C54.0317 95.532 53.9477 95.284 53.9477 94.98V90.648H52.9277V89.808H53.5037C53.7117 89.808 53.8517 89.768 53.9237 89.688C54.0037 89.6 54.0437 89.452 54.0437 89.244V88.092H54.9077V89.808H56.2637V90.648H54.9077V95.16H56.1677V96H54.9677ZM61.4427 96V89.808H62.4027V90.816H62.4507C62.6027 90.464 62.8147 90.184 63.0867 89.976C63.3667 89.768 63.7387 89.664 64.2027 89.664C64.8427 89.664 65.3467 89.872 65.7147 90.288C66.0907 90.696 66.2787 91.276 66.2787 92.028V96H65.3187V92.196C65.3187 91.084 64.8507 90.528 63.9147 90.528C63.7227 90.528 63.5347 90.552 63.3507 90.6C63.1747 90.648 63.0147 90.72 62.8707 90.816C62.7267 90.912 62.6107 91.036 62.5227 91.188C62.4427 91.332 62.4027 91.504 62.4027 91.704V96H61.4427ZM71.003 96.144C70.587 96.144 70.207 96.068 69.863 95.916C69.519 95.764 69.223 95.548 68.975 95.268C68.735 94.98 68.547 94.64 68.411 94.248C68.275 93.848 68.207 93.4 68.207 92.904C68.207 92.416 68.275 91.972 68.411 91.572C68.547 91.172 68.735 90.832 68.975 90.552C69.223 90.264 69.519 90.044 69.863 89.892C70.207 89.74 70.587 89.664 71.003 89.664C71.419 89.664 71.795 89.74 72.131 89.892C72.475 90.044 72.771 90.264 73.019 90.552C73.267 90.832 73.459 91.172 73.595 91.572C73.731 91.972 73.799 92.416 73.799 92.904C73.799 93.4 73.731 93.848 73.595 94.248C73.459 94.64 73.267 94.98 73.019 95.268C72.771 95.548 72.475 95.764 72.131 95.916C71.795 96.068 71.419 96.144 71.003 96.144ZM71.003 95.292C71.523 95.292 71.947 95.132 72.275 94.812C72.603 94.492 72.767 94.004 72.767 93.348V92.46C72.767 91.804 72.603 91.316 72.275 90.996C71.947 90.676 71.523 90.516 71.003 90.516C70.483 90.516 70.059 90.676 69.731 90.996C69.403 91.316 69.239 91.804 69.239 92.46V93.348C69.239 94.004 69.403 94.492 69.731 94.812C70.059 95.132 70.483 95.292 71.003 95.292ZM75.7778 96V89.808H76.7378V90.816H76.7858C76.8578 90.656 76.9378 90.508 77.0258 90.372C77.1218 90.228 77.2338 90.104 77.3618 90C77.4978 89.896 77.6538 89.816 77.8298 89.76C78.0058 89.696 78.2138 89.664 78.4538 89.664C78.8618 89.664 79.2378 89.764 79.5818 89.964C79.9258 90.156 80.1818 90.476 80.3498 90.924H80.3738C80.4858 90.588 80.6938 90.296 80.9978 90.048C81.3098 89.792 81.7298 89.664 82.2578 89.664C82.8898 89.664 83.3818 89.872 83.7338 90.288C84.0938 90.696 84.2738 91.276 84.2738 92.028V96H83.3138V92.196C83.3138 91.644 83.2058 91.228 82.9898 90.948C82.7738 90.668 82.4298 90.528 81.9578 90.528C81.7658 90.528 81.5818 90.552 81.4058 90.6C81.2378 90.648 81.0858 90.72 80.9498 90.816C80.8138 90.912 80.7058 91.036 80.6258 91.188C80.5458 91.332 80.5058 91.504 80.5058 91.704V96H79.5458V92.196C79.5458 91.644 79.4378 91.228 79.2218 90.948C79.0058 90.668 78.6698 90.528 78.2138 90.528C78.0218 90.528 77.8378 90.552 77.6618 90.6C77.4858 90.648 77.3298 90.72 77.1938 90.816C77.0578 90.912 76.9458 91.036 76.8578 91.188C76.7778 91.332 76.7378 91.504 76.7378 91.704V96H75.7778ZM87.1344 88.356C86.9264 88.356 86.7744 88.308 86.6784 88.212C86.5904 88.108 86.5464 87.976 86.5464 87.816V87.66C86.5464 87.5 86.5904 87.372 86.6784 87.276C86.7744 87.172 86.9264 87.12 87.1344 87.12C87.3424 87.12 87.4904 87.172 87.5784 87.276C87.6744 87.372 87.7224 87.5 87.7224 87.66V87.816C87.7224 87.976 87.6744 88.108 87.5784 88.212C87.4904 88.308 87.3424 88.356 87.1344 88.356ZM86.6544 89.808H87.6144V96H86.6544V89.808ZM94.6583 96L92.4863 89.808H93.4463L94.5263 92.88L95.1983 94.992H95.2583L95.9303 92.88L97.0343 89.808H97.9583L95.7743 96H94.6583ZM103.991 96C103.631 96 103.371 95.904 103.211 95.712C103.059 95.52 102.963 95.28 102.923 94.992H102.863C102.727 95.376 102.503 95.664 102.191 95.856C101.879 96.048 101.507 96.144 101.075 96.144C100.419 96.144 99.9071 95.976 99.5391 95.64C99.1791 95.304 98.9991 94.848 98.9991 94.272C98.9991 93.688 99.2111 93.24 99.6351 92.928C100.067 92.616 100.735 92.46 101.639 92.46H102.863V91.848C102.863 91.408 102.743 91.072 102.503 90.84C102.263 90.608 101.895 90.492 101.399 90.492C101.023 90.492 100.707 90.576 100.451 90.744C100.203 90.912 99.9951 91.136 99.8271 91.416L99.2511 90.876C99.4191 90.54 99.6871 90.256 100.055 90.024C100.423 89.784 100.887 89.664 101.447 89.664C102.199 89.664 102.783 89.848 103.199 90.216C103.615 90.584 103.823 91.096 103.823 91.752V95.16H104.531V96H103.991ZM101.231 95.328C101.471 95.328 101.691 95.3 101.891 95.244C102.091 95.188 102.263 95.108 102.407 95.004C102.551 94.9 102.663 94.78 102.743 94.644C102.823 94.508 102.863 94.36 102.863 94.2V93.18H101.591C101.039 93.18 100.635 93.26 100.379 93.42C100.131 93.58 100.007 93.812 100.007 94.116V94.368C100.007 94.672 100.115 94.908 100.331 95.076C100.555 95.244 100.855 95.328 101.231 95.328ZM111.397 96.144C110.821 96.144 110.337 96.036 109.945 95.82C109.561 95.596 109.229 95.3 108.949 94.932L109.633 94.38C109.873 94.684 110.141 94.92 110.437 95.088C110.733 95.248 111.077 95.328 111.469 95.328C111.877 95.328 112.193 95.24 112.417 95.064C112.649 94.888 112.765 94.64 112.765 94.32C112.765 94.08 112.685 93.876 112.525 93.708C112.373 93.532 112.093 93.412 111.685 93.348L111.193 93.276C110.905 93.236 110.641 93.176 110.401 93.096C110.161 93.008 109.949 92.896 109.765 92.76C109.589 92.616 109.449 92.44 109.345 92.232C109.249 92.024 109.201 91.776 109.201 91.488C109.201 91.184 109.257 90.92 109.369 90.696C109.481 90.464 109.633 90.272 109.825 90.12C110.025 89.968 110.261 89.856 110.533 89.784C110.805 89.704 111.097 89.664 111.409 89.664C111.913 89.664 112.333 89.752 112.669 89.928C113.013 90.104 113.313 90.348 113.569 90.66L112.933 91.236C112.797 91.044 112.597 90.872 112.333 90.72C112.069 90.56 111.737 90.48 111.337 90.48C110.937 90.48 110.633 90.568 110.425 90.744C110.225 90.912 110.125 91.144 110.125 91.44C110.125 91.744 110.225 91.964 110.425 92.1C110.633 92.236 110.929 92.336 111.313 92.4L111.793 92.472C112.481 92.576 112.969 92.776 113.257 93.072C113.545 93.36 113.689 93.74 113.689 94.212C113.689 94.812 113.485 95.284 113.077 95.628C112.669 95.972 112.109 96.144 111.397 96.144ZM118.125 96.144C117.709 96.144 117.329 96.068 116.985 95.916C116.641 95.764 116.345 95.548 116.097 95.268C115.857 94.98 115.669 94.64 115.533 94.248C115.397 93.848 115.329 93.4 115.329 92.904C115.329 92.416 115.397 91.972 115.533 91.572C115.669 91.172 115.857 90.832 116.097 90.552C116.345 90.264 116.641 90.044 116.985 89.892C117.329 89.74 117.709 89.664 118.125 89.664C118.541 89.664 118.917 89.74 119.253 89.892C119.597 90.044 119.893 90.264 120.141 90.552C120.389 90.832 120.581 91.172 120.717 91.572C120.853 91.972 120.921 92.416 120.921 92.904C120.921 93.4 120.853 93.848 120.717 94.248C120.581 94.64 120.389 94.98 120.141 95.268C119.893 95.548 119.597 95.764 119.253 95.916C118.917 96.068 118.541 96.144 118.125 96.144ZM118.125 95.292C118.645 95.292 119.069 95.132 119.397 94.812C119.725 94.492 119.889 94.004 119.889 93.348V92.46C119.889 91.804 119.725 91.316 119.397 90.996C119.069 90.676 118.645 90.516 118.125 90.516C117.605 90.516 117.181 90.676 116.853 90.996C116.525 91.316 116.361 91.804 116.361 92.46V93.348C116.361 94.004 116.525 94.492 116.853 94.812C117.181 95.132 117.605 95.292 118.125 95.292ZM122.9 96V89.808H123.86V90.816H123.908C124.06 90.464 124.272 90.184 124.544 89.976C124.824 89.768 125.196 89.664 125.66 89.664C126.3 89.664 126.804 89.872 127.172 90.288C127.548 90.696 127.736 91.276 127.736 92.028V96H126.776V92.196C126.776 91.084 126.308 90.528 125.372 90.528C125.18 90.528 124.992 90.552 124.808 90.6C124.632 90.648 124.472 90.72 124.328 90.816C124.184 90.912 124.068 91.036 123.98 91.188C123.9 91.332 123.86 91.504 123.86 91.704V96H122.9ZM130.6 88.356C130.392 88.356 130.24 88.308 130.144 88.212C130.056 88.108 130.012 87.976 130.012 87.816V87.66C130.012 87.5 130.056 87.372 130.144 87.276C130.24 87.172 130.392 87.12 130.6 87.12C130.808 87.12 130.956 87.172 131.044 87.276C131.14 87.372 131.188 87.5 131.188 87.66V87.816C131.188 87.976 131.14 88.108 131.044 88.212C130.956 88.308 130.808 88.356 130.6 88.356ZM130.12 89.808H131.08V96H130.12V89.808Z" fill="white"/>
</g>
<g opacity="0.48">
<rect x="0.5" y="104" width="109" height="26" fill="#3D8DFF"/>
<path d="M29.2292 122.144C28.6852 122.144 28.1932 122.052 27.7532 121.868C27.3212 121.676 26.9492 121.4 26.6372 121.04C26.3332 120.672 26.0972 120.22 25.9292 119.684C25.7612 119.14 25.6772 118.516 25.6772 117.812C25.6772 117.108 25.7612 116.488 25.9292 115.952C26.0972 115.416 26.3332 114.964 26.6372 114.596C26.9492 114.228 27.3212 113.952 27.7532 113.768C28.1932 113.576 28.6852 113.48 29.2292 113.48C29.7652 113.48 30.2532 113.576 30.6932 113.768C31.1332 113.952 31.5052 114.228 31.8092 114.596C32.1212 114.964 32.3612 115.416 32.5292 115.952C32.6972 116.488 32.7812 117.108 32.7812 117.812C32.7812 118.516 32.6972 119.14 32.5292 119.684C32.3612 120.22 32.1212 120.672 31.8092 121.04C31.5052 121.4 31.1332 121.676 30.6932 121.868C30.2532 122.052 29.7652 122.144 29.2292 122.144ZM29.2292 121.244C29.5892 121.244 29.9212 121.18 30.2252 121.052C30.5292 120.924 30.7892 120.74 31.0052 120.5C31.2292 120.26 31.4012 119.972 31.5212 119.636C31.6412 119.3 31.7012 118.924 31.7012 118.508V117.116C31.7012 116.7 31.6412 116.324 31.5212 115.988C31.4012 115.652 31.2292 115.364 31.0052 115.124C30.7892 114.884 30.5292 114.7 30.2252 114.572C29.9212 114.444 29.5892 114.38 29.2292 114.38C28.8692 114.38 28.5372 114.444 28.2332 114.572C27.9292 114.7 27.6652 114.884 27.4412 115.124C27.2252 115.364 27.0572 115.652 26.9372 115.988C26.8172 116.324 26.7572 116.7 26.7572 117.116V118.508C26.7572 118.924 26.8172 119.3 26.9372 119.636C27.0572 119.972 27.2252 120.26 27.4412 120.5C27.6652 120.74 27.9292 120.924 28.2332 121.052C28.5372 121.18 28.8692 121.244 29.2292 121.244ZM34.8973 113.12H35.8573V116.816H35.9053C36.0653 116.424 36.2973 116.136 36.6013 115.952C36.9133 115.76 37.2853 115.664 37.7173 115.664C38.1013 115.664 38.4493 115.74 38.7613 115.892C39.0733 116.044 39.3373 116.26 39.5533 116.54C39.7773 116.82 39.9453 117.16 40.0573 117.56C40.1773 117.96 40.2373 118.408 40.2373 118.904C40.2373 119.4 40.1773 119.848 40.0573 120.248C39.9453 120.648 39.7773 120.988 39.5533 121.268C39.3373 121.548 39.0733 121.764 38.7613 121.916C38.4493 122.068 38.1013 122.144 37.7173 122.144C36.8773 122.144 36.2733 121.76 35.9053 120.992H35.8573V122H34.8973V113.12ZM37.4533 121.28C37.9973 121.28 38.4253 121.112 38.7373 120.776C39.0493 120.432 39.2053 119.984 39.2053 119.432V118.376C39.2053 117.824 39.0493 117.38 38.7373 117.044C38.4253 116.7 37.9973 116.528 37.4533 116.528C37.2373 116.528 37.0293 116.56 36.8293 116.624C36.6373 116.68 36.4693 116.76 36.3253 116.864C36.1813 116.968 36.0653 117.096 35.9773 117.248C35.8973 117.392 35.8573 117.548 35.8573 117.716V120.02C35.8573 120.22 35.8973 120.4 35.9773 120.56C36.0653 120.712 36.1813 120.844 36.3253 120.956C36.4693 121.06 36.6373 121.14 36.8293 121.196C37.0293 121.252 37.2373 121.28 37.4533 121.28ZM46.0157 115.808H46.9637L44.1917 123.44C44.1197 123.624 44.0477 123.776 43.9757 123.896C43.9037 124.024 43.8157 124.124 43.7117 124.196C43.6077 124.268 43.4757 124.32 43.3157 124.352C43.1637 124.384 42.9757 124.4 42.7517 124.4H42.2597V123.56H43.2317L43.6997 122.24L41.3837 115.808H42.3437L43.8317 120.02L44.1197 121.028H44.1797L44.5157 120.02L46.0157 115.808ZM50.8574 122.144C50.4334 122.144 50.0494 122.068 49.7054 121.916C49.3694 121.764 49.0774 121.548 48.8294 121.268C48.5894 120.98 48.4014 120.64 48.2654 120.248C48.1374 119.848 48.0734 119.4 48.0734 118.904C48.0734 118.416 48.1374 117.972 48.2654 117.572C48.4014 117.172 48.5894 116.832 48.8294 116.552C49.0774 116.264 49.3694 116.044 49.7054 115.892C50.0494 115.74 50.4334 115.664 50.8574 115.664C51.2734 115.664 51.6454 115.74 51.9734 115.892C52.3014 116.044 52.5814 116.256 52.8134 116.528C53.0454 116.792 53.2214 117.108 53.3414 117.476C53.4694 117.844 53.5334 118.248 53.5334 118.688V119.144H49.0814V119.432C49.0814 119.696 49.1214 119.944 49.2014 120.176C49.2894 120.4 49.4094 120.596 49.5614 120.764C49.7214 120.932 49.9134 121.064 50.1374 121.16C50.3694 121.256 50.6294 121.304 50.9174 121.304C51.3094 121.304 51.6494 121.212 51.9374 121.028C52.2334 120.844 52.4614 120.58 52.6214 120.236L53.3054 120.728C53.1054 121.152 52.7934 121.496 52.3694 121.76C51.9454 122.016 51.4414 122.144 50.8574 122.144ZM50.8574 116.468C50.5934 116.468 50.3534 116.516 50.1374 116.612C49.9214 116.7 49.7334 116.828 49.5734 116.996C49.4214 117.164 49.3014 117.364 49.2134 117.596C49.1254 117.82 49.0814 118.068 49.0814 118.34V118.424H52.5014V118.292C52.5014 117.74 52.3494 117.3 52.0454 116.972C51.7494 116.636 51.3534 116.468 50.8574 116.468ZM55.5153 113.12H56.4753V118.748H56.5233L57.4713 117.692L59.2233 115.808H60.3873L58.0953 118.256L60.6153 122H59.4513L57.3993 118.844L56.4753 119.792V122H55.5153V113.12ZM63.4942 122C63.1582 122 62.9022 121.908 62.7262 121.724C62.5582 121.532 62.4742 121.284 62.4742 120.98V116.648H61.4542V115.808H62.0302C62.2382 115.808 62.3782 115.768 62.4502 115.688C62.5302 115.6 62.5702 115.452 62.5702 115.244V114.092H63.4342V115.808H64.7902V116.648H63.4342V121.16H64.6942V122H63.4942ZM69.9692 122V115.808H70.9292V116.816H70.9772C71.1292 116.464 71.3412 116.184 71.6132 115.976C71.8932 115.768 72.2652 115.664 72.7292 115.664C73.3692 115.664 73.8732 115.872 74.2412 116.288C74.6172 116.696 74.8052 117.276 74.8052 118.028V122H73.8452V118.196C73.8452 117.084 73.3772 116.528 72.4412 116.528C72.2492 116.528 72.0612 116.552 71.8772 116.6C71.7012 116.648 71.5412 116.72 71.3972 116.816C71.2532 116.912 71.1372 117.036 71.0492 117.188C70.9692 117.332 70.9292 117.504 70.9292 117.704V122H69.9692ZM79.5295 122.144C79.1135 122.144 78.7335 122.068 78.3895 121.916C78.0455 121.764 77.7495 121.548 77.5015 121.268C77.2615 120.98 77.0735 120.64 76.9375 120.248C76.8015 119.848 76.7335 119.4 76.7335 118.904C76.7335 118.416 76.8015 117.972 76.9375 117.572C77.0735 117.172 77.2615 116.832 77.5015 116.552C77.7495 116.264 78.0455 116.044 78.3895 115.892C78.7335 115.74 79.1135 115.664 79.5295 115.664C79.9455 115.664 80.3215 115.74 80.6575 115.892C81.0015 116.044 81.2975 116.264 81.5455 116.552C81.7935 116.832 81.9855 117.172 82.1215 117.572C82.2575 117.972 82.3255 118.416 82.3255 118.904C82.3255 119.4 82.2575 119.848 82.1215 120.248C81.9855 120.64 81.7935 120.98 81.5455 121.268C81.2975 121.548 81.0015 121.764 80.6575 121.916C80.3215 122.068 79.9455 122.144 79.5295 122.144ZM79.5295 121.292C80.0495 121.292 80.4735 121.132 80.8015 120.812C81.1295 120.492 81.2935 120.004 81.2935 119.348V118.46C81.2935 117.804 81.1295 117.316 80.8015 116.996C80.4735 116.676 80.0495 116.516 79.5295 116.516C79.0095 116.516 78.5855 116.676 78.2575 116.996C77.9295 117.316 77.7655 117.804 77.7655 118.46V119.348C77.7655 120.004 77.9295 120.492 78.2575 120.812C78.5855 121.132 79.0095 121.292 79.5295 121.292ZM84.3044 122V115.808H85.2644V116.816H85.3124C85.3844 116.656 85.4644 116.508 85.5524 116.372C85.6484 116.228 85.7604 116.104 85.8884 116C86.0244 115.896 86.1804 115.816 86.3564 115.76C86.5324 115.696 86.7404 115.664 86.9804 115.664C87.3884 115.664 87.7644 115.764 88.1084 115.964C88.4524 116.156 88.7084 116.476 88.8764 116.924H88.9004C89.0124 116.588 89.2204 116.296 89.5244 116.048C89.8364 115.792 90.2564 115.664 90.7844 115.664C91.4164 115.664 91.9084 115.872 92.2604 116.288C92.6204 116.696 92.8004 117.276 92.8004 118.028V122H91.8404V118.196C91.8404 117.644 91.7324 117.228 91.5164 116.948C91.3004 116.668 90.9564 116.528 90.4844 116.528C90.2924 116.528 90.1084 116.552 89.9324 116.6C89.7644 116.648 89.6124 116.72 89.4764 116.816C89.3404 116.912 89.2324 117.036 89.1524 117.188C89.0724 117.332 89.0324 117.504 89.0324 117.704V122H88.0724V118.196C88.0724 117.644 87.9644 117.228 87.7484 116.948C87.5324 116.668 87.1964 116.528 86.7404 116.528C86.5484 116.528 86.3644 116.552 86.1884 116.6C86.0124 116.648 85.8564 116.72 85.7204 116.816C85.5844 116.912 85.4724 117.036 85.3844 117.188C85.3044 117.332 85.2644 117.504 85.2644 117.704V122H84.3044ZM95.7929 122.144C95.5369 122.144 95.3489 122.08 95.2289 121.952C95.1169 121.824 95.0609 121.656 95.0609 121.448V121.292C95.0609 121.084 95.1169 120.916 95.2289 120.788C95.3489 120.66 95.5369 120.596 95.7929 120.596C96.0489 120.596 96.2329 120.66 96.3449 120.788C96.4649 120.916 96.5249 121.084 96.5249 121.292V121.448C96.5249 121.656 96.4649 121.824 96.3449 121.952C96.2329 122.08 96.0489 122.144 95.7929 122.144ZM99.4625 122.144C99.2065 122.144 99.0185 122.08 98.8985 121.952C98.7865 121.824 98.7305 121.656 98.7305 121.448V121.292C98.7305 121.084 98.7865 120.916 98.8985 120.788C99.0185 120.66 99.2065 120.596 99.4625 120.596C99.7185 120.596 99.9025 120.66 100.014 120.788C100.134 120.916 100.194 121.084 100.194 121.292V121.448C100.194 121.656 100.134 121.824 100.014 121.952C99.9025 122.08 99.7185 122.144 99.4625 122.144Z" fill="white"/>
</g>
<g opacity="0.4">
<rect x="0.5" y="130" width="82" height="26" fill="#3D8DFF"/>
<path d="M16.5511 148.144C16.0071 148.144 15.5151 148.052 15.0751 147.868C14.6431 147.676 14.2711 147.4 13.9591 147.04C13.6551 146.672 13.4191 146.22 13.2511 145.684C13.0831 145.14 12.9991 144.516 12.9991 143.812C12.9991 143.108 13.0831 142.488 13.2511 141.952C13.4191 141.416 13.6551 140.964 13.9591 140.596C14.2711 140.228 14.6431 139.952 15.0751 139.768C15.5151 139.576 16.0071 139.48 16.5511 139.48C17.0871 139.48 17.5751 139.576 18.0151 139.768C18.4551 139.952 18.8271 140.228 19.1311 140.596C19.4431 140.964 19.6831 141.416 19.8511 141.952C20.0191 142.488 20.1031 143.108 20.1031 143.812C20.1031 144.516 20.0191 145.14 19.8511 145.684C19.6831 146.22 19.4431 146.672 19.1311 147.04C18.8271 147.4 18.4551 147.676 18.0151 147.868C17.5751 148.052 17.0871 148.144 16.5511 148.144ZM16.5511 147.244C16.9111 147.244 17.2431 147.18 17.5471 147.052C17.8511 146.924 18.1111 146.74 18.3271 146.5C18.5511 146.26 18.7231 145.972 18.8431 145.636C18.9631 145.3 19.0231 144.924 19.0231 144.508V143.116C19.0231 142.7 18.9631 142.324 18.8431 141.988C18.7231 141.652 18.5511 141.364 18.3271 141.124C18.1111 140.884 17.8511 140.7 17.5471 140.572C17.2431 140.444 16.9111 140.38 16.5511 140.38C16.1911 140.38 15.8591 140.444 15.5551 140.572C15.2511 140.7 14.9871 140.884 14.7631 141.124C14.5471 141.364 14.3791 141.652 14.2591 141.988C14.1391 142.324 14.0791 142.7 14.0791 143.116V144.508C14.0791 144.924 14.1391 145.3 14.2591 145.636C14.3791 145.972 14.5471 146.26 14.7631 146.5C14.9871 146.74 15.2511 146.924 15.5551 147.052C15.8591 147.18 16.1911 147.244 16.5511 147.244ZM22.2192 139.12H23.1792V142.816H23.2272C23.3872 142.424 23.6192 142.136 23.9232 141.952C24.2352 141.76 24.6072 141.664 25.0392 141.664C25.4232 141.664 25.7712 141.74 26.0832 141.892C26.3952 142.044 26.6592 142.26 26.8752 142.54C27.0992 142.82 27.2672 143.16 27.3792 143.56C27.4992 143.96 27.5592 144.408 27.5592 144.904C27.5592 145.4 27.4992 145.848 27.3792 146.248C27.2672 146.648 27.0992 146.988 26.8752 147.268C26.6592 147.548 26.3952 147.764 26.0832 147.916C25.7712 148.068 25.4232 148.144 25.0392 148.144C24.1992 148.144 23.5952 147.76 23.2272 146.992H23.1792V148H22.2192V139.12ZM24.7752 147.28C25.3192 147.28 25.7472 147.112 26.0592 146.776C26.3712 146.432 26.5272 145.984 26.5272 145.432V144.376C26.5272 143.824 26.3712 143.38 26.0592 143.044C25.7472 142.7 25.3192 142.528 24.7752 142.528C24.5592 142.528 24.3512 142.56 24.1512 142.624C23.9592 142.68 23.7912 142.76 23.6472 142.864C23.5032 142.968 23.3872 143.096 23.2992 143.248C23.2192 143.392 23.1792 143.548 23.1792 143.716V146.02C23.1792 146.22 23.2192 146.4 23.2992 146.56C23.3872 146.712 23.5032 146.844 23.6472 146.956C23.7912 147.06 23.9592 147.14 24.1512 147.196C24.3512 147.252 24.5592 147.28 24.7752 147.28ZM33.3376 141.808H34.2856L31.5136 149.44C31.4416 149.624 31.3696 149.776 31.2976 149.896C31.2256 150.024 31.1376 150.124 31.0336 150.196C30.9296 150.268 30.7976 150.32 30.6376 150.352C30.4856 150.384 30.2976 150.4 30.0736 150.4H29.5816V149.56H30.5536L31.0216 148.24L28.7056 141.808H29.6656L31.1536 146.02L31.4416 147.028H31.5016L31.8376 146.02L33.3376 141.808ZM38.1792 148.144C37.7552 148.144 37.3712 148.068 37.0272 147.916C36.6912 147.764 36.3992 147.548 36.1512 147.268C35.9112 146.98 35.7232 146.64 35.5872 146.248C35.4592 145.848 35.3952 145.4 35.3952 144.904C35.3952 144.416 35.4592 143.972 35.5872 143.572C35.7232 143.172 35.9112 142.832 36.1512 142.552C36.3992 142.264 36.6912 142.044 37.0272 141.892C37.3712 141.74 37.7552 141.664 38.1792 141.664C38.5952 141.664 38.9672 141.74 39.2952 141.892C39.6232 142.044 39.9032 142.256 40.1352 142.528C40.3672 142.792 40.5432 143.108 40.6632 143.476C40.7912 143.844 40.8552 144.248 40.8552 144.688V145.144H36.4032V145.432C36.4032 145.696 36.4432 145.944 36.5232 146.176C36.6112 146.4 36.7312 146.596 36.8832 146.764C37.0432 146.932 37.2352 147.064 37.4592 147.16C37.6912 147.256 37.9512 147.304 38.2392 147.304C38.6312 147.304 38.9712 147.212 39.2592 147.028C39.5552 146.844 39.7832 146.58 39.9432 146.236L40.6272 146.728C40.4272 147.152 40.1152 147.496 39.6912 147.76C39.2672 148.016 38.7632 148.144 38.1792 148.144ZM38.1792 142.468C37.9152 142.468 37.6752 142.516 37.4592 142.612C37.2432 142.7 37.0552 142.828 36.8952 142.996C36.7432 143.164 36.6232 143.364 36.5352 143.596C36.4472 143.82 36.4032 144.068 36.4032 144.34V144.424H39.8232V144.292C39.8232 143.74 39.6712 143.3 39.3672 142.972C39.0712 142.636 38.6752 142.468 38.1792 142.468ZM42.8372 139.12H43.7972V144.748H43.8452L44.7932 143.692L46.5452 141.808H47.7092L45.4172 144.256L47.9372 148H46.7732L44.7212 144.844L43.7972 145.792V148H42.8372V139.12ZM50.8161 148C50.4801 148 50.2241 147.908 50.0481 147.724C49.8801 147.532 49.7961 147.284 49.7961 146.98V142.648H48.7761V141.808H49.3521C49.5601 141.808 49.7001 141.768 49.7721 141.688C49.8521 141.6 49.8921 141.452 49.8921 141.244V140.092H50.7561V141.808H52.1121V142.648H50.7561V147.16H52.0161V148H50.8161ZM57.2911 148V141.808H58.2511V142.816H58.2991C58.4511 142.464 58.6631 142.184 58.9351 141.976C59.2151 141.768 59.5871 141.664 60.0511 141.664C60.6911 141.664 61.1951 141.872 61.5631 142.288C61.9391 142.696 62.1271 143.276 62.1271 144.028V148H61.1671V144.196C61.1671 143.084 60.6991 142.528 59.7631 142.528C59.5711 142.528 59.3831 142.552 59.1991 142.6C59.0231 142.648 58.8631 142.72 58.7191 142.816C58.5751 142.912 58.4591 143.036 58.3711 143.188C58.2911 143.332 58.2511 143.504 58.2511 143.704V148H57.2911ZM65.1234 148.144C64.8674 148.144 64.6794 148.08 64.5594 147.952C64.4474 147.824 64.3914 147.656 64.3914 147.448V147.292C64.3914 147.084 64.4474 146.916 64.5594 146.788C64.6794 146.66 64.8674 146.596 65.1234 146.596C65.3794 146.596 65.5634 146.66 65.6754 146.788C65.7954 146.916 65.8554 147.084 65.8554 147.292V147.448C65.8554 147.656 65.7954 147.824 65.6754 147.952C65.5634 148.08 65.3794 148.144 65.1234 148.144ZM68.7929 148.144C68.5369 148.144 68.3489 148.08 68.2289 147.952C68.1169 147.824 68.0609 147.656 68.0609 147.448V147.292C68.0609 147.084 68.1169 146.916 68.2289 146.788C68.3489 146.66 68.5369 146.596 68.7929 146.596C69.0489 146.596 69.2329 146.66 69.3449 146.788C69.4649 146.916 69.5249 147.084 69.5249 147.292V147.448C69.5249 147.656 69.4649 147.824 69.3449 147.952C69.2329 148.08 69.0489 148.144 68.7929 148.144ZM72.4625 148.144C72.2065 148.144 72.0185 148.08 71.8985 147.952C71.7865 147.824 71.7305 147.656 71.7305 147.448V147.292C71.7305 147.084 71.7865 146.916 71.8985 146.788C72.0185 146.66 72.2065 146.596 72.4625 146.596C72.7185 146.596 72.9025 146.66 73.0145 146.788C73.1345 146.916 73.1945 147.084 73.1945 147.292V147.448C73.1945 147.656 73.1345 147.824 73.0145 147.952C72.9025 148.08 72.7185 148.144 72.4625 148.144Z" fill="white"/>
</g>
</svg>
