<svg width="156" height="156" viewBox="0 0 156 156" fill="none" xmlns="http://www.w3.org/2000/svg">
<path fill-rule="evenodd" clip-rule="evenodd" d="M78 14L78 -4.95911e-05C56.5212 -4.95911e-05 37.0757 8.88472 23 23L32.7452 32.7451C44.3269 21.1634 60.3269 14 78 14Z" fill="#3D8DFF"/>
<path fill-rule="evenodd" clip-rule="evenodd" d="M14 78L-5.34058e-05 78C-5.34058e-05 56.5212 8.88472 37.0757 22.9999 23L32.7451 32.7452C21.1634 44.3269 14 60.3269 14 78Z" fill="#3D8DFF"/>
<path fill-rule="evenodd" clip-rule="evenodd" d="M14 78L-5.34058e-05 78C-5.34058e-05 99.4788 8.88472 118.924 22.9999 133L32.7451 123.255C21.1634 111.673 14 95.6731 14 78Z" fill="#3D8DFF"/>
<path fill-rule="evenodd" clip-rule="evenodd" d="M78 142L78 156C56.5212 156 37.0757 147.115 23 133L32.7452 123.255C44.3269 134.836 60.3269 142 78 142Z" fill="#3D8DFF"/>
<path fill-rule="evenodd" clip-rule="evenodd" d="M78 142L78 156C99.4788 156 118.924 147.115 133 133L123.255 123.255C111.673 134.836 95.6731 142 78 142Z" fill="#3D8DFF"/>
<path fill-rule="evenodd" clip-rule="evenodd" d="M142 78L156 78C156 99.4788 147.115 118.924 133 133L123.255 123.255C134.837 111.673 142 95.6731 142 78Z" fill="#3D8DFF"/>
<path fill-rule="evenodd" clip-rule="evenodd" d="M142 78L156 78C156 56.5212 147.115 37.0757 133 23L123.255 32.7452C134.837 44.3269 142 60.3269 142 78Z" fill="#3D8DFF"/>
<path fill-rule="evenodd" clip-rule="evenodd" d="M78 13.9999L78 -4.57764e-05C99.4788 -4.57764e-05 118.924 8.88473 133 23L123.255 32.7451C111.673 21.1634 95.6731 13.9999 78 13.9999Z" fill="#173765"/>
<path d="M54.732 80.9231H39.228V76.6234L45.9757 70.8486C46.5824 70.3256 47.0951 69.8548 47.5135 69.4363C47.932 68.9969 48.2668 68.5785 48.5178 68.1809C48.7898 67.7625 48.9781 67.3545 49.0828 66.9569C49.2083 66.5594 49.2711 66.1305 49.2711 65.6702V65.2308C49.2711 64.8123 49.1874 64.4462 49.02 64.1323C48.8526 63.8185 48.6329 63.5569 48.3609 63.3477C48.0889 63.1385 47.7751 62.9816 47.4194 62.8769C47.0846 62.7723 46.7394 62.72 46.3837 62.72C45.8606 62.72 45.4003 62.8037 45.0027 62.9711C44.6261 63.1385 44.2914 63.3686 43.9984 63.6616C43.7264 63.9336 43.4963 64.2579 43.308 64.6345C43.1197 64.9902 42.9732 65.3772 42.8686 65.7957L38.7572 64.2265C39.0083 63.4732 39.3535 62.7619 39.7929 62.0923C40.2323 61.4019 40.7763 60.8056 41.4249 60.3034C42.0944 59.7803 42.8791 59.3723 43.7787 59.0794C44.6784 58.7865 45.6932 58.64 46.8231 58.64C48.0157 58.64 49.0723 58.8074 49.9929 59.1422C50.9135 59.4769 51.6877 59.9372 52.3154 60.5231C52.964 61.1089 53.4557 61.8099 53.7904 62.6259C54.1252 63.4209 54.2926 64.2892 54.2926 65.2308C54.2926 66.1723 54.1357 67.0302 53.8218 67.8043C53.508 68.5785 53.0791 69.3108 52.5351 70.0012C52.012 70.6708 51.3948 71.3089 50.6834 71.9157C49.972 72.5225 49.2292 73.1397 48.4551 73.7674L44.3751 76.9686H54.732V80.9231ZM80.3399 80.9231H64.8359V76.6234L71.5836 70.8486C72.1903 70.3256 72.7029 69.8548 73.1214 69.4363C73.5399 68.9969 73.8746 68.5785 74.1257 68.1809C74.3977 67.7625 74.586 67.3545 74.6906 66.9569C74.8162 66.5594 74.8789 66.1305 74.8789 65.6702V65.2308C74.8789 64.8123 74.7953 64.4462 74.6279 64.1323C74.4605 63.8185 74.2408 63.5569 73.9688 63.3477C73.6968 63.1385 73.3829 62.9816 73.0273 62.8769C72.6925 62.7723 72.3473 62.72 71.9916 62.72C71.4685 62.72 71.0082 62.8037 70.6106 62.9711C70.234 63.1385 69.8993 63.3686 69.6063 63.6616C69.3343 63.9336 69.1042 64.2579 68.9159 64.6345C68.7276 64.9902 68.5811 65.3772 68.4765 65.7957L64.3651 64.2265C64.6162 63.4732 64.9614 62.7619 65.4008 62.0923C65.8402 61.4019 66.3842 60.8056 67.0328 60.3034C67.7023 59.7803 68.4869 59.3723 69.3866 59.0794C70.2863 58.7865 71.3011 58.64 72.4309 58.64C73.6236 58.64 74.6802 58.8074 75.6008 59.1422C76.5214 59.4769 77.2956 59.9372 77.9233 60.5231C78.5719 61.1089 79.0636 61.8099 79.3983 62.6259C79.7331 63.4209 79.9005 64.2892 79.9005 65.2308C79.9005 66.1723 79.7436 67.0302 79.4297 67.8043C79.1159 68.5785 78.6869 69.3108 78.1429 70.0012C77.6199 70.6708 77.0026 71.3089 76.2913 71.9157C75.5799 72.5225 74.8371 73.1397 74.0629 73.7674L69.9829 76.9686H80.3399V80.9231ZM97.9344 63.128H87.9855L87.5147 70.064H87.7658C87.975 69.5409 88.2051 69.0702 88.4562 68.6517C88.7282 68.2123 89.0421 67.8462 89.3978 67.5532C89.7535 67.2394 90.1824 66.9988 90.6845 66.8314C91.1867 66.664 91.783 66.5803 92.4735 66.5803C93.415 66.5803 94.2938 66.7372 95.1098 67.0511C95.9258 67.3649 96.6371 67.8252 97.2439 68.432C97.8507 69.0179 98.3319 69.7502 98.6876 70.6289C99.0433 71.4868 99.2211 72.4597 99.2211 73.5477C99.2211 74.6566 99.0328 75.6923 98.6562 76.6548C98.3005 77.5963 97.7565 78.4123 97.0242 79.1028C96.3128 79.7932 95.4341 80.3372 94.3879 80.7348C93.3418 81.1114 92.1491 81.2997 90.8101 81.2997C89.743 81.2997 88.8015 81.1846 87.9855 80.9545C87.1695 80.7243 86.4476 80.4209 85.8199 80.0443C85.1922 79.6468 84.6482 79.1969 84.1879 78.6948C83.7276 78.1926 83.3301 77.6591 82.9953 77.0942L86.4162 74.3951C86.8975 75.2529 87.4728 75.9852 88.1424 76.592C88.8119 77.1779 89.7116 77.4708 90.8415 77.4708C91.9713 77.4708 92.8187 77.1465 93.3836 76.4979C93.9695 75.8492 94.2624 74.9914 94.2624 73.9243V73.6732C94.2624 72.6689 93.9695 71.8739 93.3836 71.288C92.7978 70.7022 91.9922 70.4092 90.967 70.4092C90.1091 70.4092 89.3978 70.5871 88.8328 70.9428C88.2888 71.2776 87.8704 71.6123 87.5775 71.9471L83.7171 71.4136L84.5331 59.0166H97.9344V63.128ZM103.006 80.9231V77.1256H108.907V62.4376H108.624L104.168 68.2751L101.155 65.9212L106.396 59.0166H113.614V77.1256H118.259V80.9231H103.006Z" fill="white"/>
<path d="M42.6777 97.3108H42.65L42.1792 98.2523L40.9238 100.532L39.6961 98.2615L39.2069 97.2461H39.1792V101.538H37.8592V95.0954H39.3454L40.9238 98.1138H40.9423L42.5023 95.0954H43.9977V101.538H42.6777V97.3108ZM48.1362 95.0954V99.0461C48.1362 99.5015 48.2254 99.8431 48.4038 100.071C48.5823 100.292 48.8808 100.403 49.2992 100.403C49.7177 100.403 50.0162 100.292 50.1946 100.071C50.3731 99.8431 50.4623 99.5015 50.4623 99.0461V95.0954H51.8285V98.8985C51.8285 99.3723 51.7823 99.7846 51.69 100.135C51.6038 100.48 51.4592 100.766 51.2562 100.994C51.0531 101.215 50.7915 101.382 50.4715 101.492C50.1515 101.597 49.7608 101.649 49.2992 101.649C48.8377 101.649 48.4469 101.597 48.1269 101.492C47.8069 101.382 47.5454 101.215 47.3423 100.994C47.1392 100.766 46.9915 100.48 46.8992 100.135C46.8131 99.7846 46.77 99.3723 46.77 98.8985V95.0954H48.1362ZM56.0039 101.538H54.6008V95.0954H57.6562C57.9516 95.0954 58.2193 95.1446 58.4593 95.2431C58.6993 95.3415 58.9023 95.4831 59.0685 95.6677C59.2408 95.8461 59.3731 96.0615 59.4654 96.3138C59.5577 96.5661 59.6039 96.8461 59.6039 97.1538C59.6039 97.5908 59.5054 97.9723 59.3085 98.2985C59.1177 98.6246 58.8254 98.8615 58.4316 99.0092L59.6962 101.538H58.1362L57.01 99.1754H56.0039V101.538ZM57.4808 97.9938C57.69 97.9938 57.8531 97.9415 57.97 97.8369C58.0931 97.7261 58.1546 97.5661 58.1546 97.3569V96.9508C58.1546 96.7415 58.0931 96.5846 57.97 96.48C57.8531 96.3692 57.69 96.3138 57.4808 96.3138H56.0039V97.9938H57.4808ZM64.6998 101.649C64.2752 101.649 63.8875 101.578 63.5368 101.437C63.186 101.295 62.8875 101.086 62.6414 100.809C62.3952 100.526 62.2044 100.178 62.0691 99.7661C61.9337 99.3477 61.866 98.8646 61.866 98.3169C61.866 97.7692 61.9337 97.2892 62.0691 96.8769C62.2044 96.4585 62.3952 96.1108 62.6414 95.8338C62.8875 95.5508 63.186 95.3385 63.5368 95.1969C63.8875 95.0554 64.2752 94.9846 64.6998 94.9846C65.1244 94.9846 65.5121 95.0554 65.8629 95.1969C66.2137 95.3385 66.5121 95.5508 66.7583 95.8338C67.0044 96.1108 67.1952 96.4585 67.3306 96.8769C67.466 97.2892 67.5337 97.7692 67.5337 98.3169C67.5337 98.8646 67.466 99.3477 67.3306 99.7661C67.1952 100.178 67.0044 100.526 66.7583 100.809C66.5121 101.086 66.2137 101.295 65.8629 101.437C65.5121 101.578 65.1244 101.649 64.6998 101.649ZM64.6998 100.403C65.1244 100.403 65.4537 100.265 65.6875 99.9877C65.9275 99.7108 66.0475 99.3138 66.0475 98.7969V97.8369C66.0475 97.32 65.9275 96.9231 65.6875 96.6461C65.4537 96.3692 65.1244 96.2308 64.6998 96.2308C64.2752 96.2308 63.9429 96.3692 63.7029 96.6461C63.4691 96.9231 63.3521 97.32 63.3521 97.8369V98.7969C63.3521 99.3138 63.4691 99.7108 63.7029 99.9877C63.9429 100.265 64.2752 100.403 64.6998 100.403ZM73.5853 95.0954V99.6738C73.5853 99.9692 73.5361 100.24 73.4376 100.486C73.3453 100.726 73.2069 100.932 73.0222 101.105C72.8376 101.271 72.613 101.403 72.3484 101.502C72.0899 101.594 71.7945 101.64 71.4622 101.64C71.1422 101.64 70.8592 101.597 70.613 101.511C70.373 101.425 70.1638 101.302 69.9853 101.142C69.813 100.982 69.6715 100.791 69.5607 100.569C69.4499 100.348 69.373 100.102 69.3299 99.8308L70.6407 99.5723C70.7453 100.132 71.013 100.412 71.4438 100.412C71.6469 100.412 71.8192 100.348 71.9607 100.218C72.1084 100.089 72.1822 99.8861 72.1822 99.6092V96.2215H70.2253V95.0954H73.5853ZM80.1217 101.538L79.6602 100.006H77.5094L77.0479 101.538H75.6263L77.7494 95.0954H79.4848L81.5802 101.538H80.1217ZM78.5986 96.3692H78.5525L77.8417 98.8154H79.3186L78.5986 96.3692ZM87.9156 101.538L87.454 100.006H85.3033L84.8417 101.538H83.4202L85.5433 95.0954H87.2787L89.374 101.538H87.9156ZM86.3925 96.3692H86.3464L85.6356 98.8154H87.1125L86.3925 96.3692ZM93.7323 96.3415V101.538H92.3292V96.3415H90.5846V95.0954H95.4769V96.3415H93.7323ZM97.8213 101.538V95.0954H99.2244V100.292H101.68V101.538H97.8213ZM108.223 101.538L107.762 100.006H105.611L105.149 101.538H103.728L105.851 95.0954H107.586L109.682 101.538H108.223ZM106.7 96.3692H106.654L105.943 98.8154H107.42L106.7 96.3692ZM113.361 101.538H111.958V95.0954H115.013C115.309 95.0954 115.576 95.1446 115.816 95.2431C116.056 95.3415 116.259 95.4831 116.425 95.6677C116.598 95.8461 116.73 96.0615 116.822 96.3138C116.915 96.5661 116.961 96.8461 116.961 97.1538C116.961 97.5908 116.862 97.9723 116.665 98.2985C116.475 98.6246 116.182 98.8615 115.789 99.0092L117.053 101.538H115.493L114.367 99.1754H113.361V101.538ZM114.838 97.9938C115.047 97.9938 115.21 97.9415 115.327 97.8369C115.45 97.7261 115.512 97.5661 115.512 97.3569V96.9508C115.512 96.7415 115.45 96.5846 115.327 96.48C115.21 96.3692 115.047 96.3138 114.838 96.3138H113.361V97.9938H114.838Z" fill="#A2A0B3"/>
</svg>
